<svg width="43" height="39" viewBox="0 0 43 39" fill="none" xmlns="http://www.w3.org/2000/svg">
<path d="M7.14007 1.5H35.8599C36.9335 1.5 37.4703 1.5 37.8676 1.68541C38.3973 1.93262 38.7922 2.40199 38.9473 2.96878C39.0636 3.39387 38.9754 3.92698 38.7989 4.9932C38.6681 5.78376 38.6026 6.17904 38.4284 6.48779C38.1962 6.89945 37.8265 7.21481 37.385 7.37778C37.0539 7.5 36.6559 7.5 35.8599 7.5H7.14007C6.34407 7.5 5.94607 7.5 5.61498 7.37778C5.17351 7.21481 4.80378 6.89945 4.57155 6.48779C4.39738 6.17904 4.33195 5.78376 4.20109 4.9932C4.0246 3.92698 3.93635 3.39387 4.05267 2.96878C4.20775 2.40199 4.60266 1.93262 5.13242 1.68541C5.52975 1.5 6.06652 1.5 7.14007 1.5Z" stroke="currentColor" stroke-width="3" stroke-linecap="round"/>
<path d="M5.5 7.5C3.10166 12.2035 1.5 15.6318 1.5 20.9001V31.0337C1.5 33.8072 1.5 35.1939 2.37868 36.0555C4.21606 37.8572 14.5344 38.1019 16.6213 36.0555C18.7884 33.9305 16.7103 29.8254 17.8045 27.2351C18.4759 25.6456 20.275 24.3903 21.5 23.1891M21.5 23.1891L18.5 20.2474M21.5 23.1891C22.725 24.3903 24.5241 25.6456 25.1955 27.2351C26.2897 29.8254 24.2116 33.9305 26.3787 36.0555C28.2161 37.8572 38.5344 38.1019 40.6213 36.0555C41.5 35.1939 41.5 33.8072 41.5 31.0337V20.9001C41.5 15.6318 39.8983 12.2035 37.5 7.5" stroke="currentColor" stroke-width="3" stroke-linecap="round" stroke-linejoin="round"/>
<path d="M17.5 13.0556L21.5 7.5L27.5 17.5" stroke="currentColor" stroke-width="3" stroke-linecap="round" stroke-linejoin="round"/>
</svg>
