<svg width="309" height="325" viewBox="0 0 309 325" fill="none" xmlns="http://www.w3.org/2000/svg">
<path d="M154.52 325C113.093 325 74.7684 309.879 46.6102 282.457C16.1305 252.736 0 211.433 0 163.01C0 114.587 16.1105 72.5245 46.5902 42.6826C74.7084 15.1609 113.033 0 154.5 0C195.967 0 234.312 15.1609 262.41 42.6826C292.89 72.5245 309 114.147 309 163.01C309 211.873 292.89 252.736 262.39 282.457C234.232 309.899 195.907 325 154.48 325H154.52Z" fill="#F98F15"/>
<g clip-path="url(#clip0_147_513)">
<path d="M169.38 192.137C170.465 190.829 171.459 189.448 172.355 188.003C173.376 186.554 174.089 184.91 174.45 183.173C174.631 181.706 174.427 180.218 173.861 178.854C173.294 177.49 172.383 176.297 171.217 175.393C169.872 174.333 168.253 173.68 166.55 173.51C164.847 173.34 163.131 173.66 161.604 174.432C159.296 175.581 157.45 177.475 155.8 179.457C154.296 181.179 153.042 183.104 152.075 185.177C151.107 187.262 150.763 189.583 151.085 191.859C151.201 192.847 151.515 193.801 152.007 194.665C152.499 195.529 153.16 196.285 153.95 196.887C154.74 197.49 155.643 197.927 156.606 198.172C157.568 198.417 158.569 198.466 159.551 198.315C161.209 198.09 162.801 197.52 164.226 196.642C166.185 195.442 167.927 193.919 169.38 192.137Z" fill="white"/>
<path d="M170.41 193.17C172.363 190.95 173.977 188.453 175.199 185.76C175.707 184.561 175.964 183.271 175.955 181.969C175.946 180.667 175.671 179.38 175.147 178.189C174.049 175.764 172.072 173.848 169.617 172.83C167.161 171.812 164.412 171.768 161.925 172.706C159.467 173.775 157.294 175.409 155.583 177.475C153.706 179.473 152.135 181.738 150.922 184.197C149.599 186.86 149.202 189.889 149.793 192.804C150.069 194.032 150.593 195.19 151.333 196.207C152.072 197.225 153.012 198.08 154.093 198.72C159.99 201.997 166.61 197.641 170.41 193.17C170.674 192.891 170.822 192.521 170.822 192.137C170.822 191.753 170.674 191.383 170.41 191.105C170.135 190.834 169.765 190.682 169.379 190.682C168.994 190.682 168.624 190.834 168.349 191.105C165.732 194.185 161.578 197.737 157.197 196.784C156.264 196.584 155.394 196.159 154.663 195.546C153.931 194.933 153.36 194.15 152.999 193.266C152.215 191.198 152.211 188.915 152.988 186.844C153.771 184.707 154.93 182.729 156.412 181.003C157.716 179.254 159.279 177.715 161.048 176.439C162.734 175.228 164.825 174.721 166.878 175.025C168.856 175.355 170.623 176.457 171.792 178.089C172.42 178.983 172.826 180.015 172.976 181.098C173.125 182.181 173.014 183.285 172.651 184.316C172.184 185.483 171.586 186.593 170.867 187.623C170.101 188.835 169.26 189.998 168.349 191.105C168.085 191.383 167.937 191.753 167.937 192.137C167.937 192.521 168.084 192.891 168.348 193.17C168.623 193.441 168.993 193.593 169.379 193.593C169.765 193.593 170.135 193.441 170.41 193.17Z" fill="#211715"/>
<path d="M169.379 147.74C170.464 146.431 171.458 145.05 172.355 143.606C173.376 142.156 174.089 140.512 174.45 138.775C174.63 137.309 174.427 135.821 173.861 134.457C173.294 133.093 172.383 131.9 171.217 130.995C169.871 129.936 168.252 129.283 166.55 129.113C164.847 128.943 163.131 129.263 161.603 130.035C159.296 131.183 157.449 133.077 155.8 135.06C154.296 136.78 153.041 138.705 152.074 140.777C151.107 142.861 150.763 145.182 151.084 147.458C151.201 148.446 151.515 149.401 152.007 150.265C152.499 151.128 153.16 151.884 153.95 152.486C154.74 153.089 155.643 153.526 156.605 153.771C157.567 154.016 158.569 154.065 159.55 153.914C161.208 153.69 162.801 153.12 164.226 152.242C166.184 151.042 167.926 149.52 169.379 147.74Z" fill="white"/>
<path d="M169.379 172.081C170.464 170.773 171.458 169.392 172.355 167.947C173.376 166.498 174.089 164.853 174.45 163.116C174.63 161.65 174.427 160.162 173.86 158.798C173.293 157.434 172.382 156.241 171.217 155.336C169.871 154.277 168.252 153.624 166.549 153.454C164.847 153.284 163.131 153.604 161.603 154.377C159.296 155.525 157.449 157.419 155.8 159.401C154.295 161.123 153.041 163.048 152.074 165.121C151.107 167.206 150.763 169.526 151.084 171.803C151.201 172.79 151.514 173.745 152.007 174.609C152.499 175.473 153.16 176.228 153.95 176.831C154.74 177.433 155.643 177.87 156.605 178.115C157.567 178.361 158.569 178.409 159.55 178.258C161.208 178.034 162.801 177.464 164.226 176.586C166.185 175.386 167.927 173.863 169.379 172.081Z" fill="white"/>
<path d="M156.471 101.833C155.385 103.14 154.391 104.522 153.495 105.967C152.474 107.416 151.761 109.06 151.4 110.797C151.219 112.263 151.422 113.752 151.989 115.116C152.556 116.48 153.467 117.673 154.633 118.577C155.979 119.637 157.598 120.29 159.302 120.46C161.005 120.63 162.721 120.31 164.249 119.537C166.556 118.388 171.227 114.046 172.877 112.064C174.528 109.958 175.995 107.713 177.262 105.354C178.303 103.182 178.629 100.734 178.194 98.3642C178.031 97.2779 177.624 96.2427 177.004 95.3364C176.385 94.4301 175.568 93.6761 174.617 93.1312C173.145 92.3184 171.452 91.9986 169.786 92.2184C168.128 92.4427 166.536 93.0123 165.111 93.8906C163.132 95.0601 157.956 100.068 156.471 101.833Z" fill="white"/>
<path d="M61.8953 232.572C57.4496 223.387 59.8719 212.127 59.4055 201.648C58.7303 186.504 57.6506 172.711 54.8827 149.859C54.3295 145.29 53.9621 140.718 56.0972 136.644C58.2323 132.571 62.998 131.015 67.4322 132.213C71.4401 133.295 73.8424 135.795 75.3666 139.663L149.244 218.109C139.347 227.867 128.328 236.413 116.419 243.567L61.8953 232.572Z" fill="white"/>
<path d="M117.155 244.828C126.523 239.203 135.343 232.712 143.502 225.437C145.806 223.39 148.064 221.291 150.274 219.142C151.625 217.832 149.563 215.768 148.213 217.076C140.607 224.526 132.362 231.292 123.574 237.294C120.991 239.039 118.361 240.709 115.683 242.305C114.074 243.268 115.538 245.794 117.155 244.828Z" fill="#211715"/>
<path d="M76.7739 139.275C75.3341 135.685 73.0193 132.805 69.3727 131.326C65.8416 129.894 61.5695 129.995 58.3238 132.117C54.5412 134.593 53.1415 139.135 53.0109 143.467C52.9985 145.807 53.1619 148.145 53.4997 150.461C53.7937 152.901 54.0805 155.342 54.3602 157.783C55.2905 165.931 56.1249 174.091 56.7692 182.267C57.3212 189.273 57.8774 196.328 57.9995 203.358C58.1531 212.228 56.5002 221.536 59.3524 230.146C59.714 231.227 60.143 232.283 60.6368 233.31C60.8341 233.642 61.1536 233.883 61.5266 233.981C61.8995 234.079 62.2959 234.026 62.6304 233.834C62.958 233.633 63.1953 233.313 63.2927 232.94C63.3902 232.568 63.3402 232.172 63.1532 231.836C59.4915 224.158 60.7273 215.153 60.9003 206.94C61.0461 200.003 60.4662 193.011 59.9712 186.093C59.4502 178.804 58.7689 171.529 57.9928 164.262C57.5107 159.759 56.9965 155.259 56.4504 150.76C55.9433 146.546 55.2432 141.868 57.1135 137.872C57.9088 136.219 59.2357 134.881 60.8809 134.074C62.5261 133.267 64.3943 133.038 66.1853 133.423C67.9341 133.714 69.575 134.463 70.9419 135.595C72.2861 136.82 73.3216 138.348 73.9636 140.051C74.0762 140.418 74.3245 140.728 74.6577 140.918C74.9909 141.108 75.3839 141.163 75.7562 141.072C76.1275 140.966 76.4425 140.719 76.633 140.383C76.8234 140.046 76.8741 139.648 76.7739 139.275Z" fill="#211715"/>
<path d="M170.41 148.771C172.363 146.551 173.977 144.054 175.199 141.361C175.707 140.162 175.964 138.872 175.955 137.57C175.946 136.268 175.671 134.982 175.147 133.79C174.049 131.365 172.072 129.449 169.617 128.431C167.162 127.413 164.412 127.368 161.925 128.307C159.467 129.376 157.294 131.01 155.583 133.077C153.706 135.074 152.136 137.339 150.922 139.798C149.599 142.461 149.202 145.491 149.793 148.406C150.069 149.633 150.594 150.792 151.333 151.809C152.073 152.826 153.012 153.681 154.093 154.322C159.99 157.598 166.61 153.242 170.41 148.771C170.675 148.492 170.823 148.122 170.823 147.737C170.823 147.352 170.675 146.981 170.41 146.703C170.135 146.432 169.765 146.28 169.38 146.28C168.994 146.28 168.624 146.432 168.349 146.703C165.732 149.783 161.578 153.335 157.197 152.383C156.264 152.183 155.394 151.758 154.663 151.145C153.931 150.532 153.36 149.749 152.999 148.865C152.215 146.797 152.211 144.513 152.989 142.443C153.771 140.306 154.93 138.327 156.412 136.602C157.716 134.852 159.279 133.313 161.048 132.038C162.735 130.827 164.825 130.319 166.878 130.623C168.856 130.954 170.623 132.055 171.792 133.688C172.421 134.582 172.826 135.614 172.976 136.697C173.125 137.78 173.014 138.884 172.651 139.915C172.185 141.082 171.586 142.192 170.867 143.222C170.101 144.434 169.26 145.596 168.349 146.703C168.084 146.982 167.936 147.352 167.936 147.737C167.936 148.122 168.084 148.492 168.348 148.772C168.623 149.042 168.994 149.194 169.379 149.194C169.765 149.194 170.135 149.042 170.41 148.771Z" fill="#211715"/>
<path d="M170.41 173.111C172.363 170.891 173.977 168.394 175.199 165.701C175.707 164.502 175.964 163.212 175.955 161.91C175.946 160.608 175.671 159.322 175.147 158.13C174.05 155.705 172.073 153.789 169.617 152.771C167.162 151.753 164.412 151.708 161.925 152.647C159.467 153.716 157.294 155.35 155.583 157.416C153.706 159.414 152.136 161.679 150.922 164.138C149.599 166.801 149.202 169.83 149.793 172.746C150.069 173.973 150.593 175.131 151.333 176.149C152.073 177.166 153.012 178.021 154.093 178.661C159.99 181.938 166.61 177.583 170.41 173.111C170.674 172.832 170.822 172.462 170.822 172.078C170.822 171.694 170.674 171.324 170.41 171.045C170.135 170.775 169.765 170.623 169.379 170.623C168.994 170.623 168.624 170.775 168.349 171.045C165.732 174.126 161.578 177.675 157.197 176.726C156.264 176.526 155.394 176.101 154.663 175.487C153.931 174.874 153.36 174.091 152.999 173.207C152.215 171.139 152.211 168.856 152.989 166.786C153.771 164.647 154.932 162.667 156.415 160.941C157.719 159.193 159.283 157.655 161.051 156.381C162.738 155.17 164.828 154.662 166.881 154.966C168.859 155.296 170.626 156.398 171.795 158.03C172.423 158.924 172.829 159.956 172.979 161.039C173.128 162.122 173.017 163.226 172.654 164.257C172.188 165.424 171.589 166.534 170.87 167.564C170.104 168.776 169.262 169.939 168.351 171.045C168.088 171.324 167.94 171.694 167.94 172.078C167.94 172.462 168.088 172.832 168.351 173.111C168.626 173.381 168.996 173.532 169.381 173.532C169.766 173.532 170.135 173.381 170.41 173.111Z" fill="#211715"/>
<path d="M155.44 100.8C154.219 102.271 153.103 103.827 152.1 105.454C151.082 106.952 150.368 108.635 149.999 110.409C149.76 112.013 149.917 113.652 150.456 115.182C150.995 116.712 151.9 118.086 153.091 119.185C154.377 120.349 155.926 121.182 157.604 121.612C159.283 122.042 161.041 122.056 162.726 121.653C165.408 120.984 167.57 119.142 169.603 117.356C171.582 115.684 173.377 113.804 174.957 111.75C175.923 110.426 176.82 109.054 177.643 107.637C178.531 106.274 179.176 104.767 179.551 103.183C180.165 100.032 179.826 96.5294 177.78 93.9531C175.585 91.1881 171.99 90.2614 168.619 90.9313C165.537 91.5434 163.147 93.3774 160.868 95.4189C158.939 97.0877 157.126 98.8854 155.44 100.8C155.175 101.078 155.028 101.448 155.028 101.832C155.028 102.217 155.175 102.587 155.44 102.865C155.715 103.136 156.085 103.288 156.47 103.288C156.856 103.288 157.226 103.136 157.501 102.865C158.777 101.414 160.133 100.036 161.564 98.7383C162.37 97.9807 163.189 97.2353 164.033 96.5197C164.58 96.0177 165.173 95.5676 165.803 95.1749C168.168 93.7292 171.329 92.9235 173.88 94.3906C176.107 95.6684 176.916 98.0257 176.908 100.488C176.939 101.801 176.684 103.106 176.159 104.31C175.516 105.588 174.791 106.823 173.991 108.009C172.763 109.939 171.316 111.72 169.679 113.317C168.074 114.955 166.317 116.436 164.431 117.739C163.398 118.433 162.212 118.862 160.976 118.99C159.739 119.118 158.491 118.941 157.339 118.473C156.021 117.947 154.888 117.045 154.078 115.878C153.268 114.712 152.818 113.333 152.784 111.912C152.78 110.26 153.513 108.77 154.343 107.383C155.278 105.797 156.336 104.286 157.507 102.865C157.771 102.586 157.918 102.217 157.918 101.832C157.918 101.448 157.771 101.079 157.507 100.8C157.232 100.527 156.861 100.374 156.474 100.374C156.086 100.374 155.715 100.527 155.44 100.8Z" fill="#211715"/>
<path d="M152.241 63.4641H85.3458C78.4743 63.4641 72.9038 69.046 72.9038 75.9315V213.618C72.9038 220.504 78.4743 226.085 85.3458 226.085H152.241C159.113 226.085 164.683 220.504 164.683 213.618V75.9315C164.683 69.046 159.113 63.4641 152.241 63.4641Z" fill="#D9D9D9"/>
<path d="M112.781 73.7804C116.789 73.7804 120.797 73.7783 124.805 73.7743C126.68 73.7743 126.683 70.8535 124.805 70.8535C120.797 70.8535 116.789 70.8555 112.781 70.8596C110.906 70.8596 110.903 73.7804 112.781 73.7804Z" fill="#211715"/>
<path d="M162.093 80.0613L73.1704 80.0674H72.9062C72.9062 100.104 72.9062 187.002 72.9062 208.696C73.0799 208.696 73.1728 208.696 73.1728 208.696L164.596 208.689H164.685C164.685 186.986 164.685 100.087 164.685 80.0637H162.093V80.0613Z" fill="white"/>
<path d="M152.242 224.624H91.5604C89.5322 224.624 87.5033 224.63 85.4751 224.624C82.5486 224.628 79.7392 223.473 77.6576 221.412C75.5759 219.351 74.3904 216.55 74.3587 213.617C74.3527 212.794 74.3587 211.971 74.3587 211.148V76.9744C74.3587 76.6446 74.3587 76.3142 74.3587 75.9844C74.3486 74.5332 74.6256 73.0944 75.1737 71.7511C75.7218 70.4078 76.5301 69.1866 77.552 68.1582C78.5738 67.1298 79.7889 66.3145 81.1271 65.7595C82.4653 65.2044 83.8999 64.9206 85.3482 64.9244C85.7927 64.9208 86.2378 64.9244 86.6841 64.9244H150.214C150.854 64.9244 151.494 64.9244 152.133 64.9244C154.644 64.9079 157.087 65.743 159.064 67.2939C161.968 69.6122 163.227 72.9918 163.227 76.6178V210.52C163.227 211.538 163.233 212.557 163.227 213.575C163.207 216.492 162.045 219.285 159.99 221.352C157.936 223.418 155.153 224.594 152.242 224.624C150.367 224.641 150.362 227.562 152.242 227.545C155.916 227.503 159.428 226.021 162.026 223.416C164.623 220.812 166.101 217.293 166.141 213.611C166.148 212.684 166.141 211.757 166.141 210.83V76.448C166.193 74.2501 165.737 72.0699 164.809 70.0777C163.881 68.0856 162.506 66.3354 160.791 64.964C158.327 63.0482 155.298 62.0069 152.179 62.0037C151.584 62 150.987 62.0037 150.392 62.0037H86.5372C85.9907 62.0037 85.4381 61.9915 84.8897 62.0116C82.9826 62.0784 81.1094 62.5365 79.386 63.3576C77.6626 64.1786 76.1256 65.3452 74.87 66.7852C72.4271 69.6384 71.4476 73.0879 71.4476 76.7791V211.446C71.4051 212.697 71.4383 213.95 71.5472 215.197C71.968 218.594 73.6091 221.721 76.1636 223.994C78.7181 226.266 82.0112 227.529 85.4271 227.545C87.4068 227.556 89.387 227.545 91.3667 227.545H152.242C154.117 227.545 154.121 224.624 152.242 224.624Z" fill="#211715"/>
<path d="M73.1707 210.154H82.7702H104.319H130.181H152.72C156.578 210.154 160.441 210.215 164.299 210.154C164.397 210.154 164.495 210.154 164.594 210.154C166.47 210.154 166.473 207.233 164.594 207.233H154.91H133.318H107.453H84.9532C81.1215 207.233 77.2849 207.172 73.4537 207.233C73.3596 207.233 73.2655 207.233 73.1707 207.233C71.2955 207.233 71.2925 210.154 73.1707 210.154Z" fill="#211715"/>
<path d="M73.1707 81.5276H82.7702H104.319H130.181H152.72C156.578 81.5276 160.441 81.5885 164.299 81.5276C164.397 81.5276 164.495 81.5276 164.594 81.5276C166.47 81.5276 166.473 78.6069 164.594 78.6069H154.91H133.318H107.453H84.9532C81.1215 78.6069 77.2849 78.546 73.4537 78.6069C73.3596 78.6069 73.2655 78.6069 73.1707 78.6069C71.2955 78.6069 71.2925 81.5276 73.1707 81.5276Z" fill="#211715"/>
<path d="M222.316 279.536C211.955 278.643 199.062 275.899 189.949 269.773C186.134 267.21 177.561 257.699 168.057 248.45C165.151 245.623 163.586 242.335 164.717 238.437C165.043 237.333 165.643 236.33 166.462 235.523C167.281 234.716 168.291 234.13 169.398 233.822C171.137 233.309 172.931 233.004 174.742 232.913L175.099 232.883C167.368 222.686 155.656 207.223 147.757 196.938C144.902 193.219 142.671 185.518 147.801 181.561C152.78 177.721 157.847 180.632 161.543 184.741C167.415 191.268 180.246 206.934 186.315 213.597C185.99 209.863 187.96 206.251 192.616 204.599C196.252 203.308 200.221 204.427 201.88 207.66C200.85 204.308 202.704 200.167 206.686 198.31C210.668 196.454 215.548 196.887 217.625 200.318C217.245 197.085 220.168 194.544 223.038 193.518C226.125 192.413 230.769 193.386 234.158 197.436C240.748 205.312 246.087 213.611 250.723 220.783C257.494 231.259 262.096 239.164 264.551 243.615L222.316 279.536Z" fill="white"/>
<path d="M183.387 241.399C179.604 236.466 175.864 231.5 172.109 226.547C166.525 219.182 160.934 211.823 155.335 204.469C154.023 202.747 152.708 201.027 151.392 199.307C150.189 197.871 149.078 196.36 148.067 194.783C146.296 191.727 145.239 187.414 147.252 184.256C147.871 183.314 148.716 182.544 149.709 182.015C150.703 181.486 151.813 181.216 152.938 181.229C155.329 181.312 157.492 182.822 159.176 184.406C160.504 185.722 161.765 187.105 162.954 188.548C164.259 190.052 165.555 191.563 166.84 193.082C172.453 199.682 177.962 206.374 183.7 212.865C184.222 213.456 184.748 214.045 185.278 214.63C186.544 216.023 188.601 213.953 187.339 212.565C181.513 206.156 176.031 199.429 170.432 192.822C167.896 189.829 165.366 186.827 162.746 183.907C159.116 179.86 153.685 176.526 148.325 179.468C146.136 180.639 144.489 182.618 143.731 184.985C143.136 187.113 143.113 189.361 143.663 191.502C144.118 193.501 144.937 195.398 146.078 197.1C147.216 198.774 148.539 200.342 149.768 201.95C155.541 209.498 161.294 217.062 167.028 224.64C171.369 230.364 175.712 236.087 180.055 241.809C180.327 242.165 180.599 242.52 180.87 242.874C181.073 243.199 181.393 243.434 181.763 243.532C182.134 243.629 182.527 243.581 182.864 243.398C183.196 243.201 183.437 242.881 183.534 242.507C183.632 242.133 183.579 241.736 183.387 241.401V241.399Z" fill="#211715"/>
<path d="M222.315 278.076C216.61 277.603 210.963 276.586 205.45 275.04C200.13 273.519 194.754 271.45 190.231 268.194C190.144 268.14 190.063 268.077 189.988 268.007C189.829 267.878 189.67 267.75 189.512 267.619C189.16 267.325 188.814 267.023 188.471 266.717C187.652 265.984 186.853 265.226 186.062 264.461C184.051 262.513 182.09 260.514 180.13 258.516C177.789 256.131 175.454 253.741 173.093 251.377C171.838 250.119 170.574 248.869 169.302 247.627C168.264 246.67 167.381 245.558 166.683 244.33C165.426 241.98 165.408 238.693 167.351 236.691C169.173 234.815 172.167 234.582 174.738 234.374C175.122 234.364 175.487 234.207 175.759 233.935C176.03 233.664 176.186 233.298 176.196 232.913C176.193 232.527 176.039 232.157 175.766 231.884C175.493 231.611 175.124 231.456 174.738 231.453C172.064 231.67 168.963 231.94 166.672 233.489C165.434 234.352 164.436 235.518 163.775 236.876C163.114 238.234 162.81 239.739 162.894 241.248C163.015 244.394 164.674 247.126 166.845 249.306C169.476 251.946 172.143 254.549 174.757 257.207C178.765 261.284 182.667 265.561 187.002 269.303C191.219 272.944 196.575 275.242 201.813 276.976C208.47 279.106 215.35 280.455 222.317 280.996C222.702 280.993 223.071 280.838 223.344 280.565C223.617 280.292 223.771 279.922 223.774 279.536C223.766 279.151 223.61 278.784 223.339 278.512C223.067 278.24 222.701 278.083 222.317 278.076H222.315Z" fill="#211715"/>
<path d="M187.768 213.597C187.519 210.344 189.244 207.703 192.221 206.32C195.158 204.955 198.967 205.305 200.616 208.396C201.396 209.856 203.742 208.858 203.28 207.271C202.347 204.062 204.538 200.847 207.519 199.524C210.333 198.275 214.52 198.124 216.362 201.056C217.074 202.187 219.223 201.847 219.078 200.318C218.869 198.12 220.41 196.493 222.219 195.484C223.73 194.602 225.52 194.33 227.224 194.723C229.467 195.254 231.478 196.499 232.955 198.272C234.92 200.523 236.73 202.929 238.503 205.334C241.856 209.882 244.976 214.595 248.048 219.336C251.077 224.012 254.067 228.711 256.956 233.475C259.13 237.065 261.261 240.679 263.288 244.352C264.199 245.995 266.715 244.526 265.805 242.878C261.106 234.364 255.917 226.126 250.633 217.967C247.333 212.872 243.977 207.81 240.342 202.946C239.378 201.656 238.396 200.38 237.395 199.118C236.444 197.842 235.419 196.623 234.326 195.467C232.528 193.631 230.226 192.371 227.712 191.847C225.185 191.345 222.562 191.821 220.372 193.18C217.909 194.691 215.875 197.281 216.163 200.316L218.879 199.579C216.175 195.276 210.518 195.04 206.252 196.91C202.062 198.745 199.136 203.46 200.469 208.045L203.134 206.92C200.797 202.542 195.421 201.772 191.186 203.602C187.182 205.333 184.513 209.156 184.853 213.595C184.862 213.979 185.018 214.345 185.29 214.617C185.561 214.889 185.927 215.046 186.31 215.055C186.696 215.052 187.065 214.897 187.337 214.624C187.61 214.351 187.765 213.981 187.768 213.595V213.597Z" fill="#211715"/>
<path d="M197.603 143.473L171.114 121.246C170.92 121.083 170.684 120.98 170.433 120.947C170.183 120.914 169.928 120.954 169.699 121.061C169.47 121.168 169.276 121.338 169.14 121.552C169.005 121.766 168.933 122.013 168.934 122.266V135.054C168.934 135.406 168.794 135.744 168.545 135.994C168.296 136.243 167.958 136.383 167.605 136.383H145.286C144.934 136.383 144.596 136.523 144.346 136.772C144.097 137.021 143.957 137.359 143.957 137.712V151.578C143.957 151.93 144.097 152.268 144.346 152.517C144.596 152.767 144.934 152.907 145.286 152.907H167.605C167.958 152.907 168.296 153.047 168.545 153.296C168.794 153.545 168.934 153.883 168.934 154.235V166.714C168.934 166.966 169.006 167.214 169.142 167.427C169.278 167.641 169.472 167.811 169.701 167.918C169.93 168.025 170.185 168.064 170.436 168.031C170.687 167.998 170.923 167.894 171.117 167.731L197.602 145.507C197.751 145.382 197.87 145.227 197.952 145.051C198.034 144.875 198.077 144.684 198.077 144.49C198.077 144.296 198.035 144.105 197.953 143.929C197.871 143.753 197.752 143.598 197.603 143.473Z" fill="#FCDC4A"/>
<path d="M198.269 142.807L180.009 127.485C177.317 125.226 174.639 122.949 171.932 120.708C171.131 120.047 170.139 119.736 169.168 120.276C168.812 120.48 168.515 120.775 168.309 121.13C168.102 121.485 167.993 121.889 167.992 122.3C167.965 123.042 167.992 123.79 167.992 124.532V132.923C168.039 133.627 168.039 134.333 167.992 135.037C167.921 135.544 167.427 135.442 167.041 135.442H145.734C144.687 135.442 143.695 135.739 143.222 136.789C142.915 137.468 143.016 138.321 143.016 139.05V150.738C143.016 151.779 143.04 152.82 144.039 153.47C144.646 153.794 145.337 153.926 146.021 153.846H167.292C167.705 153.846 167.989 153.919 167.994 154.402C168.021 156.755 167.994 159.108 167.994 161.461V165.375C167.994 166.155 167.883 167.069 168.262 167.782C168.511 168.235 168.905 168.591 169.381 168.793C169.857 168.996 170.387 169.032 170.886 168.897C171.428 168.684 171.918 168.358 172.324 167.94L174.126 166.428L181.151 160.536L195.205 148.743L196.916 147.307C197.478 146.897 198.003 146.439 198.487 145.939C198.857 145.488 199.04 144.912 199 144.33C198.959 143.748 198.698 143.203 198.269 142.807C197.389 141.974 196.057 143.303 196.938 144.138C196.996 144.177 197.044 144.229 197.077 144.291C197.11 144.353 197.127 144.421 197.127 144.491C197.127 144.561 197.11 144.63 197.077 144.691C197.044 144.753 196.996 144.806 196.938 144.844C196.393 145.392 195.729 145.859 195.136 146.356L191.713 149.227L184.865 154.971L171.352 166.31C171.053 166.561 170.031 167.665 169.875 166.713C169.862 166.552 169.862 166.389 169.875 166.227V155.248C169.875 154.31 169.944 153.366 169.21 152.631C168.587 152.006 167.809 151.965 167.001 151.965H146.021C145.66 151.965 145.008 152.094 144.9 151.632C144.843 151.094 144.843 150.551 144.9 150.013V138.581C144.9 138.161 144.739 137.408 145.295 137.324C145.7 137.295 146.107 137.295 146.512 137.324H167.349C168.704 137.324 169.814 136.477 169.875 135.054C169.954 133.202 169.875 131.33 169.875 129.477C169.875 127.15 169.896 124.822 169.875 122.494C169.875 122.303 169.85 122.1 170.01 121.965C170.415 121.624 170.998 122.374 171.285 122.613L174.943 125.683L193.403 141.173L196.936 144.138C197.86 144.912 199.198 143.587 198.269 142.807Z" fill="#211715"/>
</g>
<path d="M38.402 143.473L64.8913 121.246C65.0851 121.083 65.3212 120.98 65.572 120.947C65.8227 120.914 66.0776 120.954 66.3067 121.061C66.5357 121.168 66.7294 121.338 66.8649 121.552C67.0004 121.766 67.0721 122.013 67.0716 122.266V135.054C67.0716 135.406 67.2115 135.744 67.4607 135.994C67.7098 136.243 68.0477 136.383 68.4001 136.383H90.7193C91.0717 136.383 91.4097 136.523 91.6589 136.772C91.9081 137.021 92.0482 137.359 92.0483 137.712V151.578C92.0482 151.93 91.9082 152.268 91.6589 152.517C91.4097 152.767 91.0718 152.907 90.7193 152.907H68.4001C68.0478 152.907 67.7099 153.047 67.4607 153.296C67.2116 153.545 67.0716 153.883 67.0716 154.235V166.714C67.0715 166.966 66.9993 167.214 66.8634 167.427C66.7275 167.641 66.5335 167.811 66.3042 167.918C66.075 168.025 65.82 168.064 65.5692 168.031C65.3184 167.998 65.0822 167.894 64.8884 167.731L38.4034 145.507C38.2548 145.382 38.1353 145.227 38.0532 145.051C37.9712 144.875 37.9286 144.684 37.9284 144.49C37.9283 144.296 37.9706 144.105 38.0524 143.929C38.1342 143.753 38.2535 143.598 38.402 143.473Z" fill="#FCDC4A"/>
<path d="M37.7366 142.807L55.9964 127.485C58.6882 125.226 61.366 122.949 64.0735 120.708C64.874 120.047 65.8665 119.736 66.8369 120.276C67.1936 120.48 67.4902 120.775 67.6968 121.13C67.9033 121.485 68.0125 121.889 68.0134 122.3C68.0407 123.042 68.0134 123.79 68.0134 124.532V132.923C67.9659 133.627 67.9659 134.333 68.0134 135.037C68.0845 135.544 68.5781 135.442 68.964 135.442H90.2714C91.3185 135.442 92.3101 135.739 92.7836 136.789C93.0899 137.468 92.9897 138.321 92.9897 139.05V150.738C92.9897 151.779 92.9657 152.82 91.9661 153.47C91.3596 153.794 90.6682 153.926 89.9848 153.846H68.7132C68.3 153.846 68.0167 153.919 68.0115 154.402C67.9842 156.755 68.0115 159.108 68.0115 161.461V165.375C68.0115 166.155 68.1221 167.069 67.7433 167.782C67.4943 168.235 67.1003 168.591 66.6245 168.793C66.1487 168.996 65.6187 169.032 65.1196 168.897C64.5775 168.684 64.0871 168.358 63.681 167.94L61.8795 166.428L54.8542 160.536L40.8008 148.743L39.0892 147.307C38.5275 146.897 38.0019 146.439 37.5183 145.939C37.1485 145.488 36.9652 144.912 37.0058 144.33C37.0463 143.748 37.3078 143.203 37.7366 142.807C38.6162 141.974 39.9485 143.303 39.0675 144.138C39.0093 144.177 38.9615 144.229 38.9285 144.291C38.8954 144.353 38.8781 144.421 38.8781 144.491C38.8781 144.561 38.8954 144.63 38.9285 144.691C38.9615 144.753 39.0093 144.806 39.0675 144.844C39.6125 145.392 40.2765 145.859 40.869 146.356L44.2923 149.227L51.1401 154.971L64.6532 166.31C64.9521 166.561 65.9743 167.665 66.1305 166.713C66.143 166.552 66.143 166.389 66.1305 166.227V155.248C66.1305 154.31 66.0618 153.366 66.795 152.631C67.4186 152.006 68.1965 151.965 69.004 151.965H89.9848C90.3458 151.965 90.9971 152.094 91.1054 151.632C91.1625 151.094 91.1625 150.551 91.1054 150.013V138.581C91.1054 138.161 91.2663 137.408 90.71 137.324C90.3051 137.295 89.8985 137.295 89.4935 137.324H68.6563C67.3009 137.324 66.1912 136.477 66.1305 135.054C66.051 133.202 66.1305 131.33 66.1305 129.477C66.1305 127.15 66.1093 124.822 66.1305 122.494C66.1305 122.303 66.1554 122.1 65.9954 121.965C65.5907 121.624 65.0071 122.374 64.7201 122.613L61.062 125.683L42.6028 141.173L39.0689 144.138C38.1456 144.912 36.8072 143.587 37.7366 142.807Z" fill="#211715"/>
<defs>
<clipPath id="clip0_147_513">
<rect width="213" height="219" fill="white" transform="translate(53 62)"/>
</clipPath>
</defs>
</svg>
