<svg width="324" height="325" viewBox="0 0 324 325" fill="none" xmlns="http://www.w3.org/2000/svg">
<path d="M154.52 325C113.093 325 74.7684 309.879 46.6102 282.457C16.1305 252.736 0 211.433 0 163.01C0 114.587 16.1105 72.5245 46.5902 42.6826C74.7084 15.1609 113.033 0 154.5 0C195.967 0 234.312 15.1609 262.41 42.6826C292.89 72.5245 309 114.147 309 163.01C309 211.873 292.89 252.736 262.39 282.457C234.232 309.899 195.907 325 154.48 325H154.52Z" fill="#F98F15"/>
<g clip-path="url(#clip0_147_512)">
<path d="M156.986 105.614C156.752 105.504 156.599 105.438 156.584 105.431C155.218 104.934 155.27 104.05 155.102 103.056C154.954 102.239 154.859 101.414 154.818 100.585C158.32 99.0332 161.128 94.3281 161.62 92.9899C161.693 92.7626 161.847 92.3322 161.985 91.8257L162.269 91.7818C162.875 91.6808 163.445 91.4237 163.923 91.0357C164.511 90.5355 164.985 89.914 165.311 89.2137C166.002 87.8283 166.3 86.2793 166.172 84.7359C166.155 84.3415 166.055 83.9551 165.879 83.6017C165.727 83.3462 165.519 83.1282 165.271 82.9638C165.023 82.7993 164.741 82.6927 164.447 82.6516C163.949 82.5786 163.443 82.6876 163.019 82.9585C160.794 82.6611 158.244 79.1823 157.367 77.6819C156.565 76.035 155.924 74.3138 155.455 72.5427C153.105 75.5019 149.216 77.3984 145.157 78.3382C144.186 78.5743 144.957 76.2817 145.174 74.934C142.52 77.2186 136.978 80.7529 134.238 83.0024C133.804 82.6997 133.271 82.5743 132.747 82.6516C132.453 82.6927 132.171 82.7993 131.923 82.9638C131.675 83.1282 131.467 83.3462 131.314 83.6017C131.139 83.9551 131.039 84.3415 131.022 84.7359C130.894 86.2793 131.192 87.8283 131.883 89.2137C132.209 89.914 132.683 90.5355 133.271 91.0357C133.749 91.4237 134.319 91.6808 134.925 91.7818L135.465 91.8652C135.99 93.8198 136.923 95.6412 138.201 97.2097C139.283 98.5563 140.632 99.6634 142.163 100.461C142.116 101.211 142.025 101.958 141.889 102.698C141.721 103.684 141.773 104.568 140.407 105.065C140.392 105.073 140.21 105.153 139.925 105.292C139.925 105.292 138.991 114.813 147.755 114.813C156.519 114.813 156.986 105.614 156.986 105.614Z" fill="white"/>
<path d="M133.539 88.7049C133.958 88.816 134.341 89.035 134.649 89.34C134.993 89.7109 135.226 90.1715 135.321 90.6688C135.415 91.1662 135.367 91.6801 135.183 92.1515C134.957 92.7732 134.505 93.2872 133.918 93.5916C133.331 93.8961 132.652 93.9688 132.014 93.7954C131.376 93.6221 130.826 93.2152 130.473 92.6555C130.121 92.0957 129.991 91.4239 130.111 90.7732C130.218 90.1087 130.571 89.5088 131.099 89.0923C131.45 88.8462 131.852 88.6834 132.274 88.6163C132.697 88.5492 133.13 88.5795 133.539 88.7049Z" fill="white"/>
<path d="M162.355 88.9352C161.866 89.083 161.433 89.3755 161.113 89.7742C160.843 90.1185 160.665 90.5252 160.594 90.9569C160.523 91.3885 160.562 91.8311 160.707 92.2437C160.884 92.8436 161.282 93.3543 161.819 93.674C162.357 93.9936 162.995 94.0985 163.606 93.9679C164.218 93.8372 164.758 93.4805 165.118 92.969C165.478 92.4576 165.632 91.829 165.549 91.2088C165.535 90.8304 165.434 90.4603 165.254 90.127C165.074 89.7937 164.82 89.5062 164.512 89.2865C164.204 89.0669 163.849 88.921 163.476 88.8601C163.102 88.7992 162.72 88.8249 162.357 88.9352H162.355Z" fill="white"/>
<path d="M136.528 247.743C133.211 251.267 130.612 253.931 127.455 257.6C126.603 258.492 125.902 259.517 125.381 260.635C125.125 261.197 125.006 261.812 125.032 262.429C125.059 263.046 125.231 263.648 125.535 264.186C126.776 266.092 129.625 265.891 131.777 265.147C134.851 263.981 137.768 262.44 140.464 260.558C142.874 258.978 145.319 257.235 146.72 254.711C148.121 252.187 147.151 250.161 146.991 247.033" fill="white"/>
<path d="M182.198 244.039C183.147 246.049 184.492 249.959 186.254 252.612C188.05 255.316 189.582 258.185 190.83 261.182C191.479 262.739 192.039 264.563 191.254 266.056C190.492 267.503 188.688 268.102 187.053 268.052C184.695 267.978 182.171 265.844 180.393 264.29C177.973 262.171 174.146 257.278 173.723 255.717C173.5 254.676 173.365 253.618 173.32 252.554C173.056 249.773 172.934 248.295 172.721 246.589" fill="white"/>
<path d="M143.713 149.247H126.673C126.611 159.932 126.044 175.537 126.044 175.537C126.326 181.461 127.882 201.385 127.96 203.097C128.383 212.407 128.753 226.583 129.388 246.402C132.176 247.108 146.555 248.166 150.215 244.569C149.933 241.606 146.449 186.857 145.133 177.801C151.057 199.141 157.141 224.326 162.304 245.884C168.704 247.743 180.863 245.309 183.854 242.453C182.799 237.658 173.281 202.674 171.968 198.238C170.736 192.376 168.687 182.622 167.805 178.605C167.805 178.605 162.944 158.727 160.626 149.247H143.713Z" fill="white"/>
<path d="M147.986 139.068C148.862 135.653 151.048 127.057 151.431 125.182C153.061 117.202 155.511 112.849 157.141 104.869C160.719 106.382 164.983 107.723 168.315 109.72C169.513 110.456 170.402 111.602 170.817 112.945C172.06 117.606 173.002 122.342 173.637 127.123C174.047 129.944 175.963 138.196 175.223 142.428C173.556 142.213 171.376 141.999 169.386 141.868C169.288 147.203 169.127 155.872 169.127 155.872C169.38 158.722 169.634 162.319 169.831 165.174C170.132 169.55 170.963 174.09 171.214 178.137C171.217 178.196 171.208 178.255 171.186 178.31C171.164 178.366 171.13 178.415 171.087 178.456C171.044 178.497 170.992 178.528 170.936 178.547C170.88 178.565 170.82 178.572 170.761 178.565C169.316 178.35 167.86 178.224 166.399 178.187C161.725 178.714 156.95 178.799 154.54 178.991C154.409 179.002 154.28 178.963 154.176 178.883C154.072 178.803 154.003 178.687 153.98 178.558C152.723 171.517 149.587 158.083 147.945 148.776C147.388 145.617 146.844 143.449 147.66 140.347C147.712 140.133 147.825 139.685 147.986 139.068Z" fill="white"/>
<path d="M139.937 105.925C139.926 105.642 139.917 105.359 139.909 105.077C137.104 106.173 134.574 106.831 131.768 107.934C130.211 108.552 128.821 109.528 127.711 110.784C126.85 112.236 126.177 113.792 125.706 115.413C124.528 120.748 123.415 123.865 122.323 128.673C121.495 132.318 119.363 137.136 119.715 142.003C121.906 142.003 126.454 141.797 129.239 141.556L129.23 141.686C128.792 148.595 128.567 155.364 128.64 159.793C132.234 159.593 135.533 159.427 137.286 159.372C137.328 159.049 137.359 158.824 137.359 158.824C138.707 148.54 140.653 138.048 140.777 136.878C141.163 132.259 141.24 127.62 141.009 122.992C140.852 117.395 140.143 111.541 139.937 105.925Z" fill="white"/>
<path d="M169.256 154.665C169.589 153.983 170.014 153.214 170.571 152.209C171.128 151.204 170.904 150.158 171.099 149.512C171.702 147.512 172.26 144.679 172.685 142.635L172.787 142.148C170.676 141.936 168.332 141.766 166.607 141.736C166.539 142.007 166.5 142.159 166.5 142.159C166.006 144.077 165.843 146.7 165.345 148.619C165.323 148.758 165.26 148.887 165.163 148.989C165.037 149.096 164.853 149.062 164.692 149.099C162.204 149.579 159.913 150.783 158.106 152.56C161.788 153.696 165.161 154.66 168.782 155.762C168.913 155.406 169.07 155.049 169.256 154.665Z" fill="white"/>
<path d="M141.557 159.042C137.287 158.283 121.795 155.945 117.236 155.319C116.959 155.28 116.677 155.349 116.448 155.511C116.22 155.673 116.063 155.917 116.008 156.192C115.424 159.063 114.251 166.342 113.827 169.316C113.787 169.603 113.861 169.894 114.033 170.126C114.205 170.358 114.461 170.514 114.747 170.559C119.137 171.246 135.119 173.641 139.491 174.18C139.773 174.216 140.059 174.14 140.287 173.969C140.516 173.798 140.669 173.545 140.714 173.263C141.197 170.288 142.128 163.135 142.46 160.251C142.492 159.972 142.416 159.692 142.248 159.467C142.08 159.243 141.833 159.091 141.557 159.042Z" fill="white"/>
<path d="M121.78 141.065C121.807 143.045 122.766 157.393 122.343 161.096C122.449 163.529 119.547 166.569 119.585 168.55C119.696 169.793 119.585 171.526 120.205 172.631C120.477 173.018 120.827 173.341 121.234 173.581C121.641 173.82 122.094 173.97 122.563 174.02C123.501 174.114 124.423 174.324 125.308 174.647C125.833 174.993 126.407 175.259 127.011 175.436C127.634 175.526 128.399 175.021 128.231 174.413C128.568 174.761 128.968 175.04 129.411 175.235C129.634 175.328 129.879 175.357 130.118 175.317C130.356 175.277 130.578 175.17 130.759 175.009C130.907 174.794 131.01 174.552 131.062 174.296C131.113 174.04 131.111 173.776 131.056 173.521L130.651 168.483C131.158 168.514 131.72 169.614 132.003 170.036C132.226 170.403 132.549 170.7 132.935 170.889C133.129 170.98 133.345 171.013 133.557 170.984C133.77 170.955 133.969 170.866 134.132 170.727C134.408 170.446 134.606 170.099 134.709 169.719C134.811 169.339 134.814 168.939 134.716 168.558C133.871 166.438 132.493 165.528 131.333 164.379C130.51 163.564 129.573 163.283 128.98 162.283C128.884 162.153 128.815 162.005 128.778 161.848C128.74 161.691 128.734 161.529 128.761 161.369C128.462 157.539 128.67 149.012 129.229 140.258" fill="white"/>
<path d="M138.892 148.33C139.846 142.322 140.694 137.635 140.775 136.875C141.161 132.256 141.238 127.618 141.007 122.989C140.9 119.157 140.534 115.202 140.249 111.285C142.496 111.979 144.839 112.313 147.191 112.276C149.956 112.311 152.717 112.049 155.426 111.494C154.063 115.915 152.553 119.689 151.431 125.181C150.978 127.399 148.015 138.982 147.657 140.345C146.841 143.447 147.385 145.615 147.942 148.773C147.97 148.931 147.998 149.09 148.027 149.25H138.751C138.797 148.939 138.844 148.632 138.892 148.33Z" fill="#FCDC4A"/>
<path d="M184.089 228.871C185.612 234.018 188.168 242.251 188.202 243.117C188.239 243.815 188.041 244.413 186.741 244.985C187.129 246.625 187.788 248.19 188.689 249.614C191.53 253.836 194.776 258.764 195.262 262.769C195.636 265.845 195.262 267.479 193.883 269.265C192.161 271.495 187.456 272.657 182.927 271.214C179.663 270.175 175.665 265.422 173.379 262.823C171.949 261.05 170.816 259.057 170.024 256.922C169.116 254.102 169.329 251.301 169.321 249.939C165.277 250.101 160.097 249.72 159.367 247.773C158.985 247.106 155.479 231.715 154.219 225.973C153.537 225.965 152.858 225.959 152.181 225.957C152.612 231.523 153.214 237.504 153.524 243.442C153.579 244.504 153.875 245.932 153.28 246.636C152.633 247.338 151.795 247.837 150.87 248.071C151.195 251.156 151.33 255.857 148.11 259.114C144.891 262.372 139.549 265.611 135.005 267.56C133.15 268.355 128.938 269.216 126.93 269.021C125.864 268.949 124.839 268.584 123.967 267.969C123.094 267.353 122.407 266.509 121.98 265.53C120.843 263.088 121.842 258.635 123.603 256.597C125.672 254.202 127.931 251.617 129.932 249.695C128.228 249.695 126.062 248.937 125.875 247.909C125.785 241.486 125.596 232.375 125.596 228.139C100.383 232.153 75.9932 241.582 75.9932 255.406C75.9932 275.272 121.438 285.722 151.951 285.722C185.49 285.722 227.908 275.271 227.908 255.406C227.91 242.361 207.864 233.231 184.089 228.871Z" fill="#FCDC4A"/>
<path d="M138.188 97.2329C136.904 95.6574 135.969 93.8273 135.444 91.8635L135.282 91.8379C135.257 91.9446 135.223 92.0493 135.183 92.1514C134.919 92.7918 134.424 93.309 133.796 93.5998C133.168 93.8905 132.453 93.9334 131.795 93.7198C131.713 93.6856 131.634 93.647 131.556 93.6043C131.141 95.4803 130.121 97.1677 128.654 98.4066C128.623 98.4304 128.599 98.4615 128.583 98.4971C128.567 98.5327 128.561 98.5717 128.564 98.6104C128.568 98.6491 128.581 98.6864 128.602 98.7187C128.624 98.751 128.653 98.7774 128.688 98.7954C129.904 99.421 131.433 100.168 132.872 100.769C134.625 101.499 139.709 101.719 141.718 101.404L143.703 101.092C141.519 100.39 139.596 99.0454 138.188 97.2329Z" fill="#FCDC4A"/>
<path d="M167.483 99.1689C166.067 97.5725 164.99 95.7043 164.319 93.6782C164.22 93.7394 164.116 93.7925 164.008 93.8368C163.58 93.9848 163.12 94.0149 162.677 93.9242C162.233 93.8334 161.822 93.625 161.486 93.3208C160.691 95.0828 157.669 99.8069 154.062 100.886C155.341 101.4 156.709 101.654 158.086 101.632C161.231 101.605 164.348 101.042 167.303 99.9655C167.38 99.9376 167.448 99.891 167.501 99.8299C167.555 99.7689 167.592 99.6954 167.61 99.6162C167.628 99.5369 167.626 99.4545 167.604 99.3764C167.581 99.2982 167.54 99.2269 167.483 99.1689Z" fill="#FCDC4A"/>
<path d="M134.283 82.9592C137.04 80.7082 142.531 77.2017 145.169 74.931C144.95 76.2786 144.181 78.5712 145.152 78.3352C149.21 77.3953 153.1 75.4988 155.443 72.5346C155.917 74.3069 156.559 76.0296 157.362 77.6789C158.238 79.1778 160.784 82.6486 163.005 82.9511C163.433 82.6841 163.942 82.5769 164.441 82.6486C164.53 82.6612 164.617 82.681 164.703 82.7078C165.894 79.9306 165.294 75.2292 164.819 72.8861C163.351 65.629 156.103 59.8686 148.502 60.2895C140.901 59.8686 133.656 65.6326 132.185 72.8861C131.808 75.1609 131.812 77.4825 132.197 79.7559C132.197 79.7559 132.462 81.162 132.743 82.65C133.043 82.606 133.35 82.6274 133.641 82.7127C133.932 82.7979 134.202 82.9451 134.432 83.1441" fill="#FCDC4A"/>
<path d="M118.583 46.1317C115.751 59.3915 112.99 72.666 110.298 85.9555C107.443 99.9733 104.622 113.998 101.836 128.029C99.0244 142.138 96.2167 156.249 93.4131 170.361C90.7151 183.895 87.9928 197.425 85.2462 210.949C82.7372 223.246 80.1719 235.531 77.5504 247.805C77.248 249.208 76.9444 250.611 76.6396 252.014C76.3212 253.482 78.5736 254.109 78.8935 252.636C81.5145 240.57 84.0552 228.487 86.5156 216.387C89.2632 202.983 91.9699 189.572 94.6357 176.152C97.4452 162.081 100.245 148.007 103.035 133.932C105.837 119.856 108.659 105.785 111.503 91.7181C114.224 78.3034 116.997 64.8997 119.821 51.507C120.157 49.924 120.494 48.3406 120.832 46.7566C121.145 45.2891 118.892 44.662 118.578 46.1354L118.583 46.1317Z" fill="#FCDC4A"/>
<path d="M177.012 45.4544C178.266 50.438 179.472 55.4339 180.669 60.4313C182.289 67.193 183.89 73.9595 185.471 80.7309C187.344 88.7213 189.205 96.7166 191.054 104.717C193.089 113.503 195.115 122.29 197.133 131.079C199.21 140.118 201.282 149.157 203.349 158.197C205.349 166.942 207.346 175.688 209.338 184.434C211.167 192.455 212.996 200.477 214.823 208.499C216.361 215.251 217.9 222.002 219.439 228.753C220.573 233.726 221.71 238.698 222.849 243.67C223.465 246.35 224.072 249.033 224.714 251.709C224.775 251.964 224.836 252.22 224.901 252.473C225.272 253.93 227.53 253.312 227.154 251.851C226.632 249.804 226.182 247.738 225.708 245.68C224.679 241.215 223.656 236.749 222.64 232.28C221.194 225.944 219.749 219.606 218.305 213.268C216.539 205.511 214.771 197.754 213.003 189.997C211.032 181.352 209.06 172.708 207.087 164.065C205.033 155.079 202.976 146.094 200.915 137.11C198.873 128.213 196.825 119.317 194.771 110.422C192.861 102.156 190.943 93.8944 189.017 85.6355C187.354 78.5138 185.679 71.3953 183.99 64.2799C182.693 58.8279 181.376 53.38 180.04 47.9363C179.784 46.9015 179.526 45.8669 179.266 44.8325C178.9 43.3708 176.644 43.992 177.012 45.4544Z" fill="#FCDC4A"/>
<path d="M92.2832 85.0953C89.8613 78.4118 82.4672 72.5645 75.1585 73.1725L75.4689 75.4695C82.6096 74.0561 88.459 67.2981 87.1751 59.8246L84.9212 60.4466C87.2539 67.6818 94.2537 72.5235 101.775 72.6975L101.465 70.4012C98.018 71.1985 95.1389 73.6439 93.072 76.4284C90.9839 79.2406 89.6882 82.734 90.1995 86.2529L92.4526 85.631C92.4001 85.4512 92.3424 85.2722 92.2803 85.0953C91.8026 83.6767 89.5451 84.2848 90.0264 85.7172C90.0892 85.8941 90.1462 86.0724 90.1995 86.2529C90.653 87.7285 92.6659 87.0853 92.4526 85.631C92.0356 82.7807 93.4189 79.8311 95.0871 77.6087C96.8122 75.3117 99.2406 73.3143 102.083 72.6558C103.393 72.3525 103.066 70.3902 101.772 70.3588C95.3178 70.2126 89.1806 66.0579 87.1721 59.8246C87.1313 59.6765 87.0618 59.5379 86.9674 59.4167C86.8731 59.2956 86.7558 59.1941 86.6223 59.1183C86.4888 59.0425 86.3417 58.9937 86.1894 58.9747C86.037 58.9558 85.8824 58.9671 85.7344 59.0079C85.5864 59.0487 85.4479 59.1184 85.3268 59.2128C85.2057 59.3072 85.1044 59.4245 85.0286 59.5581C84.9528 59.6917 84.904 59.8389 84.8851 59.9913C84.8662 60.1438 84.8774 60.2985 84.9183 60.4466C85.9933 66.7017 80.6142 72.0726 74.8444 73.2142C73.5663 73.467 73.8372 75.6208 75.1555 75.5112C81.3913 74.9923 87.9368 79.9532 90.0264 85.7172C90.5384 87.119 92.7981 86.5153 92.2832 85.0953Z" fill="#FCDC4A"/>
<path d="M226.864 120.349C225.147 115.676 220.071 111.628 214.942 112.026L215.253 114.323C220.31 113.3 224.291 108.56 223.417 103.299L221.163 103.921C222.008 106.378 223.587 108.516 225.687 110.045C227.787 111.573 230.305 112.419 232.902 112.467L232.591 110.17C227.932 111.277 224.059 116.552 224.727 121.333L226.98 120.711C226.944 120.59 226.905 120.468 226.864 120.346C226.386 118.927 224.128 119.536 224.61 120.968C224.652 121.087 224.691 121.209 224.727 121.333C225.182 122.813 227.183 122.162 226.98 120.711C226.488 117.183 229.928 113.205 233.212 112.424C234.522 112.113 234.195 110.162 232.902 110.128C230.814 110.091 228.787 109.418 227.092 108.197C225.398 106.977 224.115 105.268 223.417 103.299C223.335 103 223.137 102.746 222.867 102.593C222.598 102.44 222.278 102.4 221.98 102.482C221.681 102.565 221.427 102.763 221.274 103.032C221.121 103.302 221.081 103.622 221.163 103.921C221.835 107.956 218.315 111.322 214.632 112.067C213.354 112.326 213.623 114.467 214.942 114.364C218.994 114.05 223.232 117.219 224.61 120.971C225.125 122.372 227.385 121.767 226.864 120.349Z" fill="#FCDC4A"/>
<path d="M69.1959 221.732C67.6519 217.529 63.0989 213.885 58.483 214.243L58.7934 216.54C63.3611 215.616 66.9238 211.329 66.135 206.589L63.8818 207.211C64.6395 209.421 66.0584 211.344 67.9458 212.719C69.8332 214.094 72.0977 214.854 74.4319 214.897L74.1215 212.6C69.9073 213.602 66.4439 218.359 67.0457 222.674L69.2996 222.053C69.2682 221.945 69.2332 221.838 69.1959 221.732C68.7182 220.313 66.4607 220.922 66.9427 222.353C66.98 222.459 67.0158 222.567 67.0457 222.674C67.5015 224.155 69.5019 223.504 69.2996 222.053C69.0805 220.496 69.8985 218.837 70.81 217.634C71.7647 216.286 73.1529 215.305 74.743 214.857C76.0518 214.546 75.7261 212.595 74.4319 212.561C72.6063 212.529 70.8338 211.941 69.3513 210.874C67.8688 209.808 66.7467 208.314 66.135 206.592C66.0942 206.444 66.0246 206.306 65.9303 206.185C65.836 206.063 65.7187 205.962 65.5853 205.886C65.4518 205.81 65.3047 205.762 65.1524 205.743C65.0001 205.724 64.8456 205.735 64.6976 205.776C64.5497 205.817 64.4112 205.886 64.2902 205.981C64.1691 206.075 64.0678 206.193 63.992 206.326C63.9163 206.46 63.8675 206.607 63.8486 206.759C63.8297 206.912 63.841 207.066 63.8818 207.214C64.4661 210.728 61.3643 213.642 58.1726 214.288C56.8945 214.547 57.164 216.687 58.483 216.585C62.0216 216.31 65.7376 219.076 66.9427 222.359C67.4569 223.754 69.7166 223.149 69.1959 221.732Z" fill="#FCDC4A"/>
<path d="M135.701 246.915C132.799 249.997 129.862 253.046 127.083 256.243C125.83 257.686 124.412 259.215 124 261.145C123.775 261.997 123.801 262.896 124.075 263.734C124.348 264.572 124.858 265.313 125.542 265.868C128.418 268.051 132.581 266.259 135.385 264.89C137.244 263.954 139.045 262.905 140.775 261.747C142.401 260.745 143.93 259.596 145.344 258.312C146.826 256.898 148.204 255.09 148.528 253.017C148.84 251.022 148.276 249.025 148.156 247.035C148.066 245.54 145.728 245.529 145.819 247.035C145.911 248.562 146.26 250.072 146.292 251.6C146.28 253.08 145.715 254.501 144.708 255.584C142.59 258.119 139.483 259.908 136.663 261.548C135.106 262.481 133.468 263.271 131.769 263.909C130.595 264.409 129.312 264.596 128.044 264.451C127.729 264.41 127.427 264.299 127.159 264.127C126.892 263.954 126.666 263.725 126.498 263.455C126.329 263.185 126.223 262.88 126.186 262.564C126.15 262.248 126.183 261.928 126.285 261.626C126.677 259.96 128.094 258.622 129.185 257.378C131.824 254.367 134.604 251.483 137.349 248.568C138.379 247.471 136.73 245.815 135.696 246.914L135.701 246.915Z" fill="#211715"/>
<path d="M181.189 244.629C181.889 246.129 182.47 247.683 183.142 249.197C183.903 250.877 184.79 252.498 185.794 254.046C186.993 255.934 188.067 257.899 189.008 259.929C189.704 261.431 191.063 263.786 190.242 265.465C189.52 266.941 187.329 267.107 185.959 266.66C184.234 266.098 182.755 264.803 181.41 263.631C179.167 261.646 177.215 259.356 175.61 256.827C175.331 256.405 175.087 255.961 174.88 255.499C174.617 254.418 174.475 253.311 174.456 252.198C174.282 250.327 174.12 248.454 173.89 246.589C173.881 246.282 173.754 245.99 173.537 245.773C173.32 245.555 173.028 245.429 172.721 245.42C172.412 245.421 172.115 245.545 171.896 245.764C171.678 245.983 171.554 246.279 171.553 246.589C171.797 248.572 171.975 250.564 172.152 252.554C172.31 254.32 172.386 255.981 173.303 257.533C175.038 260.439 177.217 263.055 179.761 265.285C182.673 267.823 186.871 270.855 190.744 268.26C192.681 266.961 193.105 264.757 192.556 262.593C191.862 260.304 190.895 258.107 189.678 256.049C188.447 253.762 186.895 251.664 185.766 249.325C184.835 247.4 184.112 245.385 183.209 243.447C182.573 242.085 180.558 243.271 181.191 244.628L181.189 244.629Z" fill="#211715"/>
<path d="M155.115 110.364C152.653 110.885 150.14 111.132 147.624 111.101C146.416 111.13 145.208 111.072 144.009 110.927C143.378 110.84 142.753 110.707 142.134 110.565C141.522 110.347 140.889 110.195 140.244 110.113C139.934 110.113 139.637 110.236 139.418 110.456C139.199 110.675 139.076 110.972 139.076 111.283C139.076 111.593 139.199 111.89 139.418 112.109C139.637 112.329 139.934 112.452 140.244 112.452C140.296 112.452 140.843 112.654 141.011 112.697C141.338 112.779 141.668 112.858 141.996 112.929C142.635 113.067 143.279 113.172 143.927 113.255C145.228 113.408 146.538 113.469 147.847 113.438C150.498 113.45 153.142 113.176 155.734 112.619C157.195 112.277 156.579 110.021 155.113 110.364H155.115Z" fill="#211715"/>
<path d="M139.597 103.95C136.39 105.193 132.809 105.879 129.81 107.592C128.558 108.242 127.469 109.166 126.623 110.296C126.03 111.27 125.54 112.304 125.163 113.38C124.708 114.653 124.344 115.956 124.074 117.28C123.708 118.79 123.305 120.29 122.894 121.788C122.079 124.758 121.427 127.78 120.557 130.73C119.475 134.405 118.31 138.111 118.547 141.996C118.638 143.492 120.976 143.502 120.884 141.996C120.685 138.725 121.545 135.591 122.473 132.486C123.293 129.739 123.91 126.944 124.664 124.179C125.446 121.302 126.111 118.392 126.886 115.516C127.423 113.523 128.305 111.424 130.035 110.213C131.484 109.291 133.059 108.583 134.709 108.109C136.553 107.486 138.408 106.904 140.223 106.201C141.611 105.664 141.009 103.402 139.603 103.946L139.597 103.95Z" fill="#211715"/>
<path d="M156.83 105.993C160.015 107.331 163.33 108.389 166.398 109.989C167.629 110.63 168.802 111.309 169.443 112.604C170.109 113.954 170.319 115.7 170.658 117.166C171.383 120.326 171.928 123.524 172.403 126.728C172.741 129.012 173.206 131.273 173.571 133.552C174.01 136.303 174.543 139.329 174.088 142.112C173.847 143.584 176.098 144.218 176.342 142.734C177.195 137.523 175.583 132.121 174.785 126.997C174.253 123.585 173.732 120.182 172.969 116.812C172.679 115.158 172.252 113.53 171.694 111.946C171.118 110.603 170.141 109.472 168.897 108.706C165.383 106.498 161.249 105.336 157.446 103.737C157.147 103.656 156.829 103.697 156.56 103.85C156.291 104.003 156.093 104.256 156.008 104.554C155.934 104.852 155.977 105.169 156.129 105.436C156.281 105.704 156.53 105.903 156.825 105.992L156.83 105.993Z" fill="#211715"/>
<path d="M163.163 136.005C163.163 137.94 163.185 139.878 163.187 141.809C163.19 142.119 163.314 142.414 163.533 142.633C163.751 142.852 164.047 142.976 164.356 142.979C167.989 142.852 171.625 143.057 175.221 143.593C175.53 143.591 175.826 143.467 176.045 143.248C176.264 143.029 176.388 142.733 176.389 142.423C176.382 142.115 176.257 141.822 176.039 141.605C175.821 141.387 175.528 141.261 175.221 141.254C171.625 140.719 167.989 140.513 164.356 140.64L165.525 141.809C165.525 139.875 165.5 137.94 165.5 136.005C165.5 135.695 165.377 135.397 165.157 135.178C164.938 134.959 164.641 134.836 164.331 134.836C164.021 134.836 163.724 134.959 163.505 135.178C163.286 135.397 163.163 135.695 163.163 136.005Z" fill="#211715"/>
<path d="M156.014 104.555C155.094 108.995 153.596 113.238 152.234 117.552C151.222 120.755 150.535 124.018 149.746 127.277C149.056 130.127 148.335 132.965 147.614 135.804C146.978 138.301 146.068 140.908 146.073 143.502C146.185 145.717 146.494 147.918 146.994 150.079C147.352 152.048 147.736 154.011 148.132 155.972C148.991 160.233 149.906 164.483 150.807 168.735C151.206 170.619 151.602 172.504 151.985 174.391C152.153 175.219 152.318 176.047 152.479 176.875C152.564 177.612 152.711 178.34 152.917 179.053C153.296 180.051 154.178 180.18 155.115 180.119C156.065 180.056 157.019 180.014 157.971 179.968C160.43 179.846 162.89 179.712 165.341 179.468C166.524 179.361 167.714 179.374 168.894 179.506C169.609 179.579 170.602 179.891 171.298 179.653C172.66 179.183 172.353 177.643 172.247 176.518C172.113 175.051 171.93 173.589 171.746 172.127C171.064 166.719 170.765 161.298 170.285 155.874C170.154 154.386 167.816 154.372 167.948 155.874C168.353 160.478 168.547 165.108 169.102 169.699C169.389 172.08 169.73 174.456 169.937 176.846C169.921 177.118 169.942 177.391 170.002 177.657L170.013 177.819C170.695 177.529 170.847 177.377 170.468 177.363C170.209 177.291 169.941 177.256 169.671 177.258C168.802 177.149 167.928 177.079 167.052 177.039C165.895 177.05 164.739 177.132 163.592 177.285C162.371 177.383 161.147 177.46 159.924 177.527C158.907 177.584 157.889 177.631 156.872 177.681C156.428 177.704 155.983 177.727 155.539 177.755L155.11 177.782C154.771 177.804 154.3 177.66 154.812 178.036C155.261 178.364 155.088 178.203 155.031 177.872C154.995 177.677 154.959 177.482 154.923 177.288C154.859 176.943 154.794 176.599 154.727 176.256C154.567 175.428 154.403 174.6 154.234 173.772C153.869 171.975 153.492 170.182 153.113 168.388C152.274 164.42 151.42 160.454 150.609 156.476C150.21 154.523 149.821 152.568 149.455 150.609C148.994 148.558 148.654 146.481 148.438 144.39C148.272 141.905 149.072 139.527 149.679 137.146C150.378 134.403 151.074 131.659 151.748 128.91C152.559 125.603 153.223 122.268 154.223 119.009C155.635 114.405 157.284 109.906 158.262 105.179C158.566 103.71 156.314 103.082 156.009 104.557L156.014 104.555Z" fill="#211715"/>
<path d="M139.907 150.416H147.519C147.829 150.416 148.127 150.293 148.346 150.074C148.565 149.855 148.688 149.557 148.688 149.247C148.688 148.937 148.565 148.639 148.346 148.42C148.127 148.201 147.829 148.078 147.519 148.078H139.907C139.753 148.078 139.601 148.108 139.46 148.167C139.318 148.225 139.189 148.312 139.081 148.42C138.972 148.529 138.886 148.658 138.827 148.799C138.769 148.941 138.738 149.093 138.738 149.247C138.738 149.401 138.769 149.553 138.827 149.694C138.886 149.836 138.972 149.965 139.081 150.074C139.189 150.182 139.318 150.269 139.46 150.327C139.601 150.386 139.753 150.416 139.907 150.416Z" fill="#211715"/>
<path d="M124.875 175.537C125.262 183.553 125.963 191.558 126.547 199.561C127.125 207.483 127.26 215.438 127.505 223.375C127.742 231.05 127.98 238.726 128.219 246.402C128.223 246.657 128.308 246.904 128.462 247.107C128.617 247.31 128.832 247.458 129.076 247.53C132.192 248.295 135.641 248.312 138.827 248.278C140.913 248.271 142.996 248.108 145.059 247.793C146.8 247.59 148.483 247.045 150.013 246.19C150.637 245.799 151.372 245.313 151.378 244.505C151.378 244.338 151.351 244.165 151.338 243.998C151.292 243.388 151.251 242.779 151.21 242.171C151.059 239.952 150.913 237.733 150.772 235.514C150.317 228.569 149.859 221.626 149.396 214.685C148.878 207.01 148.334 199.336 147.764 191.664C147.364 186.418 147.02 181.149 146.368 175.926C146.317 175.518 146.264 175.108 146.204 174.701C146.12 174.403 145.922 174.151 145.653 173.998C145.384 173.845 145.065 173.804 144.767 173.884C144.472 173.973 144.222 174.172 144.07 174.44C143.918 174.707 143.875 175.024 143.95 175.322C143.968 175.449 143.986 175.575 144.003 175.701C143.949 175.304 144.003 175.716 144.017 175.813C144.057 176.139 144.097 176.465 144.133 176.791C144.222 177.566 144.301 178.342 144.377 179.119C144.578 181.184 144.756 183.252 144.926 185.32C145.382 190.847 145.785 196.378 146.177 201.91C146.98 213.248 147.72 224.591 148.462 235.934C148.651 238.811 148.78 241.7 149.046 244.572L149.389 243.744C148.367 244.713 146.646 245.126 145.215 245.404C143.248 245.753 141.255 245.931 139.258 245.937C136.118 245.994 132.631 245.998 129.698 245.279L130.556 246.407C130.165 234.197 129.839 221.986 129.397 209.779C129.14 202.71 128.593 195.674 128.082 188.618C127.767 184.262 127.425 179.904 127.214 175.542C127.141 174.043 124.804 174.035 124.877 175.542L124.875 175.537Z" fill="#211715"/>
<path d="M166.681 178.915C167.979 184.846 169.209 190.791 170.458 196.731C171.073 199.659 171.966 202.524 172.759 205.408C175.287 214.58 177.773 223.764 180.215 232.96C181.078 236.217 182 239.473 182.73 242.764L183.03 241.627C182.002 242.439 180.828 243.047 179.571 243.415C177.771 244.031 175.923 244.497 174.046 244.81C170.355 245.452 166.267 245.786 162.615 244.759L163.431 245.576C159.268 228.182 155.072 210.798 150.558 193.494C149.3 188.67 148.012 183.857 146.693 179.053C146.611 178.753 146.413 178.499 146.143 178.346C145.873 178.193 145.554 178.153 145.255 178.236C144.956 178.318 144.702 178.516 144.549 178.786C144.396 179.056 144.357 179.375 144.439 179.674C149.193 196.942 153.487 214.333 157.699 231.739C158.865 236.557 160.024 241.376 161.177 246.197C161.231 246.392 161.334 246.57 161.477 246.713C161.621 246.856 161.798 246.96 161.993 247.014C165.637 248.037 169.601 247.803 173.306 247.279C176.682 246.801 180.359 246.043 183.329 244.283C183.929 243.995 184.454 243.572 184.862 243.047C184.956 242.823 185.004 242.582 185.004 242.339C185.004 242.096 184.956 241.855 184.862 241.631C184.696 240.927 184.519 240.226 184.342 239.525C183.768 237.268 183.173 235.016 182.578 232.765C179.657 221.743 176.7 210.727 173.611 199.751C172.796 196.853 172.243 193.896 171.623 190.95C170.735 186.731 169.855 182.511 168.933 178.299C168.612 176.829 166.358 177.451 166.679 178.92L166.681 178.915Z" fill="#211715"/>
<path d="M165.37 141.848C165.061 143.077 164.903 144.337 164.718 145.588C164.625 146.22 164.527 146.853 164.402 147.48C164.301 147.745 164.238 148.024 164.215 148.307C164.894 147.984 165.042 147.859 164.657 147.933C164.565 147.945 164.472 147.958 164.378 147.971C164.259 147.993 164.14 148.026 164.021 148.054C161.576 148.632 159.321 149.833 157.477 151.541C156.37 152.564 158.026 154.215 159.13 153.195C160.107 152.279 161.233 151.538 162.46 151.002C162.929 150.808 163.41 150.642 163.9 150.506C164.146 150.435 164.394 150.37 164.643 150.31C164.76 150.282 164.881 150.249 165 150.228C165.123 150.219 165.245 150.202 165.365 150.175C166.213 149.934 166.444 149.096 166.607 148.336C166.745 147.688 166.848 147.035 166.946 146.381C167.141 145.073 167.301 143.755 167.623 142.471C167.989 141.009 165.738 140.389 165.369 141.85L165.37 141.848Z" fill="#211715"/>
<path d="M156.83 153.389C160.813 154.632 164.823 155.777 168.814 156.994C170.255 157.432 170.872 155.177 169.434 154.739C165.445 153.522 161.433 152.376 157.451 151.135C156.012 150.686 155.396 152.943 156.83 153.389Z" fill="#211715"/>
<path d="M171.556 142.324C171.076 144.632 170.544 146.915 169.969 149.2C169.876 149.703 169.819 150.212 169.8 150.722C169.7 151.309 169.478 151.868 169.148 152.364C168.604 153.324 168.119 154.317 167.696 155.337C167.616 155.636 167.657 155.954 167.81 156.224C167.963 156.493 168.215 156.691 168.513 156.775C168.812 156.85 169.128 156.807 169.395 156.655C169.663 156.503 169.862 156.253 169.95 155.958C170.356 155.023 170.82 154.114 171.338 153.236C171.7 152.638 171.948 151.977 172.068 151.288C172.138 150.804 172.113 150.296 172.223 149.822C172.753 147.529 173.329 145.253 173.809 142.946C174.113 141.477 171.862 140.849 171.556 142.324Z" fill="#211715"/>
<path d="M120.099 170.209C118.784 170.009 117.469 169.807 116.155 169.604C115.901 169.565 115.115 169.572 114.931 169.402C115.06 169.521 114.985 169.419 115.015 169.226C115.04 169.076 115.06 168.926 115.082 168.776C115.367 166.859 115.668 164.943 115.985 163.03C116.297 161.13 116.613 159.229 116.971 157.335C117.003 157.17 117.028 156.555 117.122 156.474C117.442 156.493 117.76 156.538 118.072 156.608C119.424 156.803 120.775 156.999 122.127 157.198C122.425 157.27 122.74 157.225 123.007 157.073C123.274 156.922 123.473 156.674 123.564 156.381C123.645 156.082 123.604 155.763 123.452 155.494C123.299 155.224 123.046 155.026 122.748 154.942C121.509 154.761 120.269 154.581 119.03 154.401C118.024 154.255 116.882 153.906 115.945 154.453C114.53 155.281 114.532 157.676 114.281 159.122C113.94 161.076 113.617 163.032 113.311 164.992C113.175 165.854 113.041 166.717 112.91 167.581C112.69 168.388 112.626 169.23 112.723 170.061C113.062 171.343 114.184 171.651 115.326 171.828C116.709 172.042 118.092 172.254 119.476 172.465C119.774 172.537 120.089 172.492 120.356 172.341C120.623 172.189 120.822 171.941 120.913 171.648C120.993 171.349 120.953 171.03 120.8 170.761C120.648 170.492 120.395 170.294 120.097 170.209H120.099Z" fill="#211715"/>
<path d="M128.315 158.126C131.308 158.579 134.299 159.042 137.288 159.514C138.34 159.682 139.392 159.855 140.444 160.031C140.663 160.068 140.882 160.123 141.101 160.145C141.238 160.158 141.361 160.268 141.296 160.145C141.407 160.353 141.195 161.041 141.167 161.276C140.913 163.389 140.642 165.501 140.353 167.611C140.207 168.694 140.056 169.776 139.9 170.858C139.838 171.296 139.773 171.735 139.706 172.173C139.681 172.336 139.657 172.498 139.633 172.661C139.611 172.796 139.507 173.073 139.606 173.026C139.339 173.16 138.443 172.88 138.15 172.841C137.539 172.76 136.928 172.676 136.317 172.589C134.652 172.357 132.988 172.117 131.325 171.871C131.026 171.799 130.711 171.844 130.444 171.995C130.178 172.147 129.978 172.395 129.887 172.688C129.807 172.987 129.847 173.306 130 173.575C130.153 173.844 130.405 174.042 130.703 174.127C132.411 174.377 134.119 174.622 135.828 174.863C137.013 175.028 138.222 175.273 139.417 175.343C142.27 175.512 142.129 171.721 142.402 169.754C142.759 167.178 143.098 164.599 143.417 162.018C143.544 160.988 143.868 159.815 143.256 158.883C142.561 157.822 141.206 157.801 140.076 157.615C136.368 157.003 132.652 156.436 128.936 155.873C128.638 155.801 128.323 155.846 128.056 155.997C127.789 156.149 127.59 156.397 127.499 156.69C127.419 156.989 127.459 157.308 127.612 157.577C127.764 157.846 128.017 158.045 128.315 158.129V158.126Z" fill="#211715"/>
<path d="M138.739 105.077C138.854 108.955 139.207 112.818 139.492 116.685C139.772 120.504 139.914 124.328 139.949 128.159C139.968 130.119 139.945 132.08 139.835 134.037C139.781 134.987 139.7 135.931 139.607 136.877C139.602 136.927 139.573 137.149 139.601 136.934C139.63 136.719 139.577 137.091 139.567 137.153C139.283 138.988 138.97 140.817 138.676 142.65C138.079 146.389 137.522 150.135 137.005 153.888C136.934 154.186 136.979 154.501 137.13 154.768C137.281 155.035 137.528 155.234 137.821 155.326C138.12 155.407 138.439 155.366 138.708 155.213C138.977 155.06 139.175 154.808 139.259 154.51C140.006 149.049 140.9 143.614 141.759 138.171C142.142 135.444 142.32 132.692 142.29 129.939C142.313 126.05 142.2 122.151 141.94 118.271C141.648 113.873 141.21 109.485 141.076 105.076C141.031 103.575 138.694 103.569 138.739 105.077Z" fill="#211715"/>
<path d="M129.48 168.48C129.606 170.014 129.724 171.549 129.853 173.084C129.876 173.36 129.906 173.636 129.907 173.914C129.907 173.994 129.899 174.077 129.902 174.156C129.913 174.436 129.804 174.136 129.925 174.183C129.601 174.038 129.307 173.834 129.058 173.581C128.873 173.407 128.636 173.297 128.384 173.268C128.132 173.24 127.877 173.293 127.657 173.421C127.438 173.549 127.266 173.744 127.166 173.978C127.066 174.211 127.045 174.471 127.105 174.718C127.07 174.629 127.067 174.53 127.097 174.438C127.126 174.347 127.187 174.269 127.268 174.217C127.182 174.319 127.14 174.339 127.14 174.279C127.16 174.29 126.962 174.21 126.898 174.183C126.393 173.967 125.948 173.636 125.437 173.433C124.488 173.167 123.523 172.962 122.547 172.819C122.208 172.785 121.886 172.652 121.62 172.439C121.354 172.225 121.155 171.939 121.048 171.615C120.85 170.604 120.752 169.576 120.756 168.545C120.748 168.238 120.622 167.945 120.405 167.727C120.187 167.509 119.895 167.384 119.587 167.376C119.278 167.378 118.982 167.502 118.763 167.721C118.545 167.94 118.421 168.236 118.418 168.545C118.539 170.053 118.424 171.662 119.113 173.057C119.466 173.647 119.952 174.146 120.532 174.515C121.112 174.885 121.77 175.113 122.454 175.183C123.191 175.258 123.919 175.403 124.629 175.616C125.243 175.953 125.874 176.255 126.521 176.521C126.877 176.634 127.256 176.654 127.622 176.58C127.988 176.506 128.329 176.34 128.614 176.097C128.898 175.855 129.115 175.544 129.246 175.194C129.377 174.843 129.416 174.466 129.361 174.096L127.408 175.233C127.742 175.61 128.149 175.916 128.604 176.131C129.059 176.347 129.553 176.469 130.056 176.489C130.559 176.473 131.041 176.288 131.426 175.963C131.81 175.639 132.074 175.194 132.174 174.7C132.279 173.758 132.253 172.805 132.096 171.87C132.005 170.74 131.914 169.61 131.823 168.48C131.815 168.172 131.689 167.879 131.472 167.661C131.254 167.444 130.962 167.318 130.654 167.31C130.345 167.313 130.049 167.437 129.83 167.655C129.612 167.874 129.488 168.17 129.486 168.48H129.48Z" fill="#211715"/>
<path d="M120.753 168.548C120.753 168.475 120.762 168.402 120.76 168.335C120.752 168.127 120.714 168.524 120.752 168.387C120.79 168.251 120.812 168.102 120.854 167.962C120.896 167.822 120.942 167.691 120.993 167.558C121.006 167.526 121.105 167.293 121.037 167.447C120.969 167.6 121.077 167.362 121.091 167.332C121.394 166.671 121.755 166.038 122.099 165.397C122.803 164.081 123.559 162.631 123.512 161.096C123.512 160.942 123.482 160.79 123.423 160.648C123.364 160.506 123.278 160.378 123.169 160.269C123.061 160.16 122.932 160.074 122.79 160.016C122.649 159.957 122.497 159.927 122.343 159.927C122.19 159.927 122.038 159.957 121.896 160.016C121.754 160.074 121.625 160.16 121.517 160.269C121.408 160.378 121.322 160.506 121.264 160.648C121.205 160.79 121.175 160.942 121.175 161.096C121.18 161.257 121.161 161.415 121.159 161.575C121.207 161.356 121.159 161.717 121.159 161.575C121.138 161.665 121.123 161.757 121.101 161.846C121.021 162.16 120.921 162.467 120.8 162.767C120.68 163.076 120.9 162.555 120.76 162.86C120.725 162.938 120.687 163.016 120.653 163.094C120.572 163.267 120.487 163.439 120.401 163.609C120.234 163.938 120.059 164.262 119.883 164.586C119.226 165.798 118.416 167.124 118.419 168.547C118.419 168.701 118.449 168.853 118.508 168.995C118.567 169.137 118.653 169.266 118.761 169.374C118.87 169.483 118.999 169.569 119.14 169.628C119.282 169.686 119.434 169.717 119.588 169.717C119.741 169.717 119.893 169.686 120.035 169.628C120.177 169.569 120.305 169.483 120.414 169.374C120.522 169.266 120.608 169.137 120.667 168.995C120.726 168.853 120.756 168.701 120.756 168.547L120.753 168.548Z" fill="#211715"/>
<path d="M127.583 161.393C127.375 163.062 129.085 164.034 130.162 164.896C130.63 165.27 131.054 165.72 131.495 166.127C131.944 166.526 132.362 166.959 132.744 167.423C133.146 167.896 133.451 168.445 133.639 169.037C133.639 169.031 133.631 169.183 133.646 169.122C133.619 169.235 133.573 169.441 133.55 169.509C133.495 169.625 133.431 169.738 133.36 169.846C133.237 170.007 133.448 169.715 133.36 169.846C133.445 169.734 133.594 169.957 133.367 169.803C133.462 169.868 133.247 169.709 133.238 169.702C133.032 169.484 132.845 169.249 132.678 169.001C132.302 168.53 131.88 168.1 131.477 167.653C131.369 167.544 131.24 167.458 131.098 167.4C130.956 167.341 130.804 167.31 130.651 167.31C130.497 167.31 130.345 167.341 130.203 167.4C130.062 167.458 129.933 167.544 129.824 167.653C129.716 167.762 129.63 167.891 129.571 168.032C129.512 168.174 129.482 168.326 129.482 168.48C129.482 168.634 129.512 168.786 129.571 168.927C129.63 169.069 129.716 169.198 129.824 169.307C130.189 169.71 130.562 170.104 130.915 170.518C131.061 170.691 130.883 170.468 130.994 170.622C131.105 170.777 131.221 170.94 131.346 171.091C131.574 171.371 131.848 171.61 132.157 171.798C132.492 172.002 132.872 172.121 133.263 172.145C133.655 172.168 134.046 172.095 134.403 171.932C135.046 171.57 135.527 170.977 135.747 170.272C136.278 168.888 135.685 167.546 134.879 166.404C134.178 165.486 133.385 164.643 132.511 163.889C132 163.405 131.456 162.956 130.884 162.547C130.556 162.316 129.862 161.88 129.92 161.394C129.918 161.085 129.795 160.788 129.576 160.569C129.357 160.35 129.061 160.227 128.751 160.225C128.444 160.232 128.151 160.358 127.933 160.576C127.716 160.793 127.59 161.086 127.583 161.393Z" fill="#211715"/>
<path d="M120.682 143.234C120.729 145.996 120.974 148.76 121.097 151.519C121.367 154.704 121.392 157.904 121.175 161.093C121.013 162.587 123.351 162.576 123.512 161.093C123.73 157.904 123.704 154.704 123.435 151.519C123.308 148.76 123.069 145.996 123.019 143.234C122.993 141.731 120.656 141.726 120.682 143.234Z" fill="#211715"/>
<path d="M128.06 142.635C127.673 148.714 127.183 154.877 127.564 160.97C127.657 162.464 129.994 162.475 129.901 160.97C129.523 154.877 130.01 148.714 130.397 142.635C130.493 141.132 128.155 141.138 128.06 142.635Z" fill="#211715"/>
<path d="M119.714 143.169C122.828 143.165 125.959 142.998 129.062 142.737C129.833 142.672 130.995 142.751 131.44 142.015C131.634 141.614 131.743 141.176 131.759 140.73C131.905 139.544 131.942 138.342 131.985 137.149C132.026 136.015 132.035 134.883 132.089 133.748C132.162 132.243 129.825 132.247 129.752 133.748C129.69 135.046 129.679 136.348 129.629 137.646C129.597 138.423 129.562 139.199 129.499 139.973C129.486 140.13 129.472 140.286 129.455 140.443C129.446 140.526 129.436 140.609 129.427 140.691C129.438 140.595 129.471 140.455 129.433 140.633C129.414 140.724 129.389 140.823 129.378 140.916C129.348 141.179 129.481 140.749 129.416 140.842L130.425 140.264C126.868 140.653 123.292 140.841 119.714 140.829C119.404 140.829 119.106 140.952 118.887 141.171C118.668 141.39 118.545 141.688 118.545 141.998C118.545 142.308 118.668 142.605 118.887 142.825C119.106 143.044 119.404 143.167 119.714 143.167V143.169Z" fill="#211715"/>
<path d="M131.047 172.178C131.154 172.358 131.305 172.509 131.485 172.616L131.499 172.624C131.592 172.669 131.687 172.709 131.784 172.744H131.793C131.944 172.792 132.104 172.799 132.259 172.764C132.413 172.757 132.563 172.709 132.693 172.626L132.929 172.443C133.041 172.34 133.124 172.211 133.171 172.066C133.223 171.978 133.251 171.877 133.251 171.774C133.286 171.62 133.279 171.459 133.23 171.308L133.113 171.029C133.011 170.855 132.866 170.711 132.693 170.609L132.645 170.576C132.515 170.492 132.366 170.444 132.211 170.437C131.984 170.41 131.754 170.447 131.547 170.546C131.341 170.645 131.167 170.801 131.046 170.996L130.929 171.275C130.873 171.479 130.873 171.693 130.929 171.897L131.046 172.176C131.148 172.349 131.293 172.494 131.466 172.596L131.513 172.628L132.414 170.492L132.401 170.487L132.68 170.606C132.674 170.603 132.669 170.599 132.663 170.595L132.9 170.778C132.895 170.774 132.89 170.769 132.886 170.764L133.069 171.001V170.996C132.956 170.794 132.783 170.632 132.575 170.533C132.367 170.433 132.132 170.399 131.905 170.437C131.75 170.444 131.6 170.492 131.47 170.576L131.233 170.759C131.09 170.902 130.986 171.08 130.932 171.275L130.891 171.586C130.891 171.793 130.946 171.997 131.051 172.176L131.047 172.178Z" fill="#211715"/>
<path d="M140.507 106.302C140.628 106.242 140.75 106.185 140.872 106.129C141.159 105.996 140.629 106.229 140.857 106.136C141.231 105.991 141.582 105.791 141.898 105.542C142.341 105.173 142.659 104.677 142.81 104.12C142.908 103.708 142.982 103.291 143.033 102.871C143.169 102.102 143.267 101.327 143.325 100.549C143.323 100.239 143.2 99.9427 142.981 99.7238C142.762 99.5049 142.466 99.3811 142.157 99.3794C141.849 99.3865 141.556 99.5119 141.338 99.7297C141.12 99.9475 140.995 100.241 140.988 100.549C140.964 100.879 140.932 101.206 140.894 101.538C140.917 101.385 140.867 101.766 140.894 101.538C140.883 101.611 140.873 101.684 140.862 101.757C140.839 101.906 140.814 102.056 140.789 102.205C140.721 102.603 140.683 103.009 140.583 103.403C140.563 103.484 140.534 103.561 140.51 103.641C140.472 103.77 140.645 103.362 140.561 103.521C140.538 103.566 140.517 103.609 140.492 103.653C140.467 103.696 140.445 103.726 140.423 103.759C140.357 103.871 140.623 103.536 140.496 103.664C140.458 103.703 140.423 103.743 140.383 103.78C140.342 103.818 140.212 103.932 140.366 103.799C140.521 103.666 140.376 103.785 140.333 103.812C140.276 103.846 140.217 103.879 140.158 103.909C140.116 103.93 140.068 103.946 140.028 103.97C140.18 103.909 140.214 103.893 140.13 103.925C140.023 103.965 139.917 104.009 139.814 104.057C139.651 104.13 139.491 104.203 139.332 104.283C139.065 104.441 138.872 104.698 138.793 104.997C138.715 105.297 138.758 105.616 138.912 105.884C139.074 106.146 139.33 106.335 139.628 106.413C139.926 106.491 140.242 106.452 140.511 106.303L140.507 106.302Z" fill="#211715"/>
<path d="M153.648 100.549C153.688 101.332 153.771 102.113 153.895 102.887C153.968 103.368 154.023 103.865 154.136 104.339C154.259 104.889 154.538 105.391 154.939 105.786C155.173 106.008 155.44 106.192 155.731 106.332C155.858 106.391 155.988 106.444 156.118 106.497C156.375 106.602 155.925 106.407 156.028 106.456C156.15 106.512 156.273 106.566 156.394 106.623C156.663 106.772 156.979 106.812 157.277 106.734C157.575 106.655 157.831 106.465 157.992 106.203C158.145 105.934 158.187 105.617 158.108 105.318C158.03 105.019 157.838 104.762 157.573 104.603C157.323 104.486 157.062 104.39 156.814 104.273C157.106 104.411 156.762 104.24 156.685 104.194C156.633 104.153 156.577 104.117 156.519 104.085C156.554 104.096 156.718 104.261 156.613 104.152C156.573 104.112 156.531 104.069 156.491 104.03C156.381 103.924 156.559 104.112 156.57 104.137C156.529 104.059 156.483 103.983 156.434 103.91C156.333 103.735 156.528 104.189 156.47 103.996C156.459 103.962 156.447 103.93 156.436 103.897C156.407 103.803 156.384 103.707 156.363 103.612C156.274 103.184 156.221 102.745 156.153 102.314C156.14 102.234 156.128 102.154 156.117 102.074C156.082 101.844 156.13 102.195 156.112 102.048C156.093 101.887 156.073 101.727 156.056 101.565C156.022 101.227 155.997 100.888 155.983 100.548C155.983 100.238 155.86 99.9404 155.641 99.7211C155.422 99.5019 155.125 99.3787 154.815 99.3787C154.505 99.3787 154.207 99.5019 153.988 99.7211C153.769 99.9404 153.646 100.238 153.646 100.548L153.648 100.549Z" fill="#211715"/>
<path d="M133.324 79.4452C132.549 75.7944 133.167 71.9856 135.057 68.7678C137.026 65.555 140.095 63.1681 143.693 62.0515C145.516 61.5679 147.402 61.3615 149.287 61.439C151.199 61.445 153.09 61.8429 154.843 62.6083C158.347 64.1242 161.172 66.875 162.783 70.3384C163.536 72.1449 163.985 74.0637 164.111 76.0169C164.311 78.121 164.387 80.3727 163.588 82.3686C163.03 83.7652 165.289 84.3725 165.842 82.9898C166.54 80.9163 166.763 78.7122 166.494 76.5409C166.392 74.5257 166.024 72.5328 165.398 70.6146C163.893 66.5184 160.925 63.1254 157.066 61.0904C153.131 59.096 148.628 58.5239 144.319 59.4709C140.051 60.4468 136.288 62.9553 133.744 66.5212C132.39 68.4724 131.453 70.6827 130.993 73.0134C130.533 75.3442 130.559 77.7449 131.07 80.065C131.387 81.5354 133.641 80.9135 133.324 79.443V79.4452Z" fill="#211715"/>
<path d="M154.38 73.0665C154.94 75.3562 155.882 77.535 157.167 79.511C158.467 81.3264 160.226 83.5203 162.515 84.0502C163.975 84.3886 164.604 82.1347 163.136 81.7948C163.027 81.7693 162.917 81.7408 162.813 81.7071C162.483 81.6041 162.982 81.8007 162.658 81.6487C162.451 81.5496 162.251 81.4363 162.06 81.3096C161.667 81.0485 161.302 80.7477 160.971 80.4121C160.256 79.7155 159.61 78.9512 159.043 78.1297C157.933 76.38 157.119 74.4593 156.633 72.4446C156.21 71.0034 153.954 71.6166 154.379 73.0665H154.38Z" fill="#211715"/>
<path d="M154.661 71.6655C153.056 73.5845 150.997 75.0721 148.672 75.9935C148.08 76.242 147.473 76.459 146.861 76.6512C146.576 76.7419 146.289 76.8276 146.001 76.9085C145.809 76.9626 145.616 77.0137 145.423 77.0634C144.995 77.0819 145.017 77.2257 145.489 77.4946C146.025 78.0347 145.814 77.8556 145.854 77.4318C145.884 77.2106 145.925 76.9911 145.976 76.774C146.081 76.2624 146.204 75.7545 146.293 75.2393C146.352 74.9924 146.33 74.7329 146.231 74.4994C146.131 74.2658 145.959 74.0707 145.739 73.9429C145.52 73.8151 145.266 73.7615 145.013 73.7901C144.761 73.8186 144.525 73.9278 144.34 74.1014C140.907 77.0247 136.957 79.2903 133.453 82.1295C132.284 83.0796 133.947 84.7225 135.106 83.7827C138.612 80.9434 142.555 78.6837 145.993 75.7552L144.043 74.6217C143.838 75.7984 143.24 77.2403 143.598 78.433C144.143 80.2411 146.416 79.2581 147.625 78.8642C150.912 77.7935 154.115 76.052 156.316 73.3201C157.251 72.1588 155.607 70.494 154.663 71.667L154.661 71.6655Z" fill="#211715"/>
<path d="M163.582 83.9668C163.457 84.0743 163.559 83.9807 163.637 83.9332C163.679 83.9084 163.89 83.8156 163.691 83.8901C163.758 83.8645 163.828 83.847 163.896 83.8251C164.177 83.733 163.796 83.809 163.957 83.8039C164.047 83.8039 164.137 83.7995 164.227 83.798C164.434 83.798 164.186 83.7644 164.291 83.8083C164.37 83.8419 164.466 83.855 164.547 83.8813C164.435 83.8411 164.474 83.8463 164.557 83.8967C164.557 83.8967 164.802 84.0662 164.698 83.9815C164.595 83.8967 164.79 84.0787 164.809 84.0977C164.947 84.2321 164.809 84.048 164.839 84.1452C164.846 84.1715 164.946 84.4002 164.89 84.2351C164.915 84.3081 164.936 84.3812 164.953 84.4616C164.953 84.4558 165.006 84.7708 164.991 84.6531C164.976 84.5354 165.006 84.8314 165.008 84.8577C165.016 84.9637 165.021 85.0704 165.025 85.1764C165.067 85.9258 164.978 86.6769 164.76 87.3952C164.708 87.5818 164.65 87.7659 164.585 87.9477C164.536 88.0968 164.478 88.2432 164.413 88.3862C164.13 88.7992 163.936 89.2666 163.844 89.7587C163.844 90.0688 163.967 90.3662 164.186 90.5855C164.405 90.8048 164.702 90.928 165.012 90.928C165.322 90.928 165.619 90.8048 165.839 90.5855C166.058 90.3662 166.181 90.0688 166.181 89.7587V89.7514L166.021 90.3419C167.178 88.4273 167.607 86.1599 167.231 83.9544C167.118 83.4015 166.857 82.8896 166.476 82.4735C166.095 82.0574 165.608 81.7526 165.067 81.5916C164.526 81.4344 163.953 81.418 163.404 81.5438C162.854 81.6696 162.346 81.9336 161.927 82.3108C161.709 82.5308 161.587 82.8278 161.587 83.1374C161.587 83.4469 161.709 83.7439 161.927 83.9639C162.149 84.1762 162.445 84.2946 162.753 84.2946C163.061 84.2946 163.356 84.1762 163.579 83.9639L163.582 83.9668Z" fill="#211715"/>
<path d="M132.798 88.4572C132.523 87.8027 132.327 87.118 132.213 86.4174C132.158 86.0739 132.213 86.5416 132.204 86.3443C132.199 86.2522 132.186 86.1602 132.178 86.0681C132.165 85.8829 132.157 85.6978 132.155 85.5126C132.155 85.346 132.159 85.1794 132.166 85.0128C132.17 84.9207 132.18 84.8286 132.185 84.7358C132.197 84.5121 132.16 84.8089 132.19 84.6766C132.22 84.5186 132.259 84.3626 132.308 84.2096C132.254 84.3557 132.3 84.2337 132.346 84.1562C132.359 84.131 132.374 84.1066 132.391 84.0831C132.438 84.0101 132.42 84.0342 132.336 84.1482C132.373 84.1032 132.413 84.0607 132.456 84.021C132.63 83.831 132.335 84.0817 132.456 84.0086C132.519 83.9713 132.585 83.9355 132.646 83.8909C132.82 83.7733 132.533 83.9129 132.656 83.88C132.729 83.8602 132.802 83.8354 132.875 83.8142C133.021 83.7703 132.902 83.7747 132.841 83.8091C132.92 83.7917 133.002 83.788 133.082 83.7981C133.212 83.7981 133.267 83.8171 133.107 83.7864C133.186 83.8018 133.264 83.8193 133.34 83.8412C133.417 83.8632 133.581 83.9545 133.373 83.8412C133.429 83.8719 133.486 83.8982 133.541 83.9304C133.595 83.9625 133.805 84.1387 133.606 83.9684C133.713 84.0796 133.842 84.1682 133.985 84.2292C134.127 84.2901 134.28 84.322 134.435 84.3232C134.59 84.3244 134.744 84.2947 134.887 84.236C135.03 84.1772 135.161 84.0905 135.27 83.9809C135.38 83.8714 135.466 83.7411 135.525 83.5977C135.584 83.4543 135.614 83.3006 135.613 83.1456C135.611 82.9906 135.58 82.8374 135.519 82.6949C135.458 82.5523 135.369 82.4233 135.258 82.3153C134.867 81.9676 134.399 81.7165 133.893 81.5818C133.387 81.4472 132.856 81.4328 132.343 81.5398C131.86 81.6429 131.409 81.8609 131.027 82.1755C130.646 82.4901 130.346 82.892 130.152 83.3472C129.822 84.2712 129.721 85.2614 129.856 86.2332C129.94 87.2118 130.173 88.1717 130.547 89.0798C130.636 89.3743 130.835 89.6233 131.103 89.7753C131.37 89.9273 131.686 89.9708 131.984 89.8969C132.281 89.8119 132.533 89.6136 132.686 89.3446C132.838 89.0757 132.879 88.7575 132.8 88.4586L132.798 88.4572Z" fill="#211715"/>
<path d="M130.435 93.3099C130.213 94.2717 129.819 95.1856 129.274 96.0081C129.025 96.3749 128.743 96.7174 128.431 97.0313C127.993 97.4757 127.413 97.8403 127.408 98.5397C127.397 99.7558 128.78 100.158 129.686 100.598C130.682 101.113 131.706 101.57 132.754 101.969C134.229 102.403 135.757 102.634 137.295 102.654C138.876 102.776 140.464 102.735 142.037 102.532C142.334 102.448 142.587 102.25 142.739 101.981C142.892 101.711 142.933 101.393 142.852 101.094C142.764 100.798 142.565 100.547 142.296 100.394C142.027 100.241 141.71 100.198 141.41 100.274C141.279 100.279 141.149 100.292 141.019 100.312C140.81 100.329 140.601 100.341 140.392 100.349C139.881 100.372 139.376 100.376 138.868 100.369C137.761 100.357 136.655 100.288 135.555 100.162C134.761 100.093 133.978 99.9229 133.226 99.6565C132.568 99.4007 131.923 99.0849 131.285 98.7795C130.936 98.6133 130.588 98.4428 130.243 98.2679C129.947 98.1687 129.667 98.028 129.411 97.8498L129.753 98.6764L129.74 98.5302L129.58 99.12C129.735 98.959 129.902 98.8105 130.08 98.6757C130.27 98.4827 130.451 98.2803 130.622 98.0706C130.945 97.6805 131.241 97.2682 131.506 96.8369C132.047 95.9316 132.445 94.9487 132.688 93.9224C133.04 92.4607 130.789 91.8358 130.435 93.3011V93.3099Z" fill="#211715"/>
<path d="M163.192 93.9969C163.757 95.6689 164.562 97.2497 165.582 98.6895C165.81 99.0608 166.082 99.4029 166.393 99.7083L166.523 99.8545C167.064 99.0491 167.112 98.7492 166.669 98.9548C166.525 98.9902 166.385 99.0376 166.249 99.0966C165.536 99.3324 164.813 99.539 164.081 99.7163C161.326 100.39 158.224 100.859 155.434 100.131C153.977 99.7514 153.356 102.007 154.812 102.387C158.245 103.283 162.079 102.696 165.45 101.779C166.291 101.596 167.11 101.327 167.895 100.975C168.121 100.851 168.315 100.678 168.463 100.467C168.61 100.257 168.708 100.015 168.748 99.7607C168.788 99.5066 168.769 99.2466 168.692 99.001C168.616 98.7553 168.484 98.5305 168.307 98.3438C167.062 96.8745 166.093 95.1925 165.445 93.3786C165.356 93.0838 165.157 92.8345 164.889 92.6824C164.622 92.5303 164.306 92.487 164.007 92.5615C163.71 92.6463 163.458 92.8446 163.305 93.1136C163.153 93.3827 163.112 93.7009 163.192 93.9998V93.9969Z" fill="#211715"/>
<path d="M153.981 102.115C156.172 101.611 158.019 100.054 159.467 98.403C160.683 97.0616 161.702 95.5542 162.494 93.9259C162.641 93.6561 162.68 93.3398 162.602 93.0421C162.524 92.7445 162.335 92.488 162.074 92.3254C161.806 92.1714 161.488 92.129 161.189 92.2075C160.89 92.286 160.634 92.479 160.476 92.7449C160.184 93.3601 159.851 93.9545 159.477 94.5237C159.226 94.9135 158.963 95.2967 158.686 95.6733C158.607 95.78 158.528 95.886 158.447 95.9912C158.572 95.829 158.425 96.0168 158.38 96.0738C158.219 96.2755 158.053 96.475 157.884 96.6702C157.548 97.0568 157.197 97.4295 156.828 97.7832C156.649 97.9552 156.465 98.1218 156.277 98.2831C156.171 98.3752 156.058 98.4636 155.952 98.5528C155.847 98.6419 155.843 98.6405 155.941 98.5638C155.899 98.5952 155.858 98.6266 155.815 98.6573C155.417 98.9528 154.995 99.2146 154.553 99.44C154.434 99.4999 154.313 99.5567 154.188 99.6103C154.376 99.5277 154.183 99.6103 154.101 99.6395C153.857 99.7283 153.608 99.8015 153.355 99.8588C153.056 99.9413 152.803 100.139 152.649 100.409C152.496 100.679 152.457 100.998 152.539 101.297C152.622 101.596 152.819 101.851 153.089 102.004C153.359 102.157 153.678 102.197 153.977 102.114L153.981 102.115Z" fill="#211715"/>
<path d="M145.227 100.213C143.133 99.8849 141.215 98.8478 139.794 97.2747C138.571 96.0171 137.619 94.5206 136.999 92.8787C136.894 92.5988 136.797 92.3153 136.706 92.0303C136.663 91.8929 136.622 91.755 136.582 91.6166C136.553 91.5158 136.513 91.1357 136.513 91.5084C136.513 91.1983 136.39 90.9009 136.171 90.6816C135.952 90.4623 135.654 90.3391 135.344 90.3391C135.034 90.3391 134.737 90.4623 134.518 90.6816C134.299 90.9009 134.176 91.1983 134.176 91.5084C134.247 92.1486 134.421 92.773 134.691 93.3574C134.932 94.0228 135.211 94.6732 135.529 95.3051C136.212 96.6378 137.093 97.8594 138.141 98.9286C140.001 100.935 142.511 102.218 145.225 102.551C145.535 102.549 145.831 102.425 146.049 102.206C146.268 101.988 146.392 101.691 146.394 101.382C146.387 101.074 146.262 100.781 146.044 100.563C145.826 100.345 145.533 100.22 145.225 100.213H145.227Z" fill="#211715"/>
<path d="M133.228 89.8326C133.32 89.8596 133.41 89.902 133.501 89.9247C133.236 89.8589 133.314 89.837 133.399 89.8823C133.463 89.9167 133.528 89.9473 133.591 89.9846C133.663 90.0205 133.73 90.0649 133.791 90.1169C133.603 89.9247 133.722 90.0643 133.756 90.1023C133.809 90.1608 133.867 90.2185 133.922 90.2755C134.001 90.3729 133.986 90.3525 133.876 90.2141C133.905 90.2543 133.932 90.2952 133.958 90.3376C133.984 90.38 134.009 90.4224 134.031 90.4662L134.066 90.5327C134.119 90.646 134.111 90.6212 134.04 90.4597C134.073 90.5811 134.112 90.7009 134.157 90.8185C134.165 90.8929 134.18 90.9664 134.203 91.0377L134.181 90.8777C134.187 90.9281 134.191 90.9785 134.193 91.029C134.195 91.0794 134.198 91.1306 134.198 91.181C134.18 91.2815 134.174 91.3838 134.18 91.4857L134.2 91.3257C134.192 91.3761 134.181 91.4258 134.17 91.4719C134.158 91.5179 134.145 91.5705 134.13 91.618C134.116 91.6655 134.046 91.7949 134.057 91.8373L134.12 91.6838C134.1 91.7255 134.08 91.7664 134.058 91.8073C134.016 91.8848 133.883 92.02 133.875 92.0996L133.974 91.9732C133.945 92.0098 133.915 92.0463 133.884 92.0799C133.836 92.1325 133.787 92.183 133.738 92.2312C133.688 92.2809 133.634 92.3255 133.583 92.373C133.399 92.5403 133.808 92.2305 133.596 92.3606C133.495 92.4212 133.399 92.487 133.294 92.5418L133.231 92.574C133.118 92.6266 133.147 92.6156 133.317 92.5425C133.271 92.5544 133.227 92.5708 133.185 92.5915C133.117 92.6149 133.049 92.6353 132.981 92.6529C132.928 92.6668 132.651 92.6887 132.859 92.688C133.066 92.6872 132.838 92.688 132.802 92.688C132.729 92.6931 132.656 92.6945 132.586 92.6931C132.526 92.6931 132.467 92.685 132.407 92.6821C132.244 92.6748 132.706 92.7515 132.464 92.6872C132.331 92.6514 132.201 92.6141 132.07 92.5725C131.918 92.5221 132.329 92.7114 132.12 92.5893C132.039 92.5418 131.956 92.5001 131.877 92.449C131.852 92.4314 131.658 92.3087 131.829 92.4183C132 92.5279 131.821 92.4051 131.791 92.3781C131.742 92.332 131.694 92.2838 131.645 92.2319C131.618 92.2027 131.499 92.0295 131.606 92.1961C131.714 92.3627 131.597 92.18 131.579 92.153C131.542 92.0975 131.506 92.0412 131.473 91.9834C131.44 91.9257 131.423 91.8848 131.395 91.8373C131.259 91.5939 131.465 92.0565 131.395 91.8439C131.36 91.7401 131.322 91.637 131.297 91.5311C131.281 91.4675 131.27 91.4039 131.256 91.3403C131.202 91.1043 131.275 91.6326 131.261 91.3959C131.256 91.2892 131.248 91.1846 131.251 91.0779C131.251 91.0158 131.257 90.9537 131.261 90.8909C131.273 90.6716 131.188 91.1788 131.261 90.9201C131.281 90.847 131.296 90.7739 131.318 90.6965C131.346 90.608 131.456 90.4224 131.302 90.7038C131.356 90.6058 131.399 90.5028 131.457 90.4063C131.489 90.3537 131.525 90.304 131.557 90.2514C131.653 90.0994 131.484 90.3427 131.477 90.3508C131.554 90.2696 131.623 90.179 131.7 90.1001C131.748 90.0526 131.798 90.0095 131.846 89.9642C131.86 89.9525 131.875 89.9422 131.888 89.9305C131.602 90.1885 131.653 90.1008 131.822 89.9905C131.895 89.9437 131.968 89.9072 132.042 89.8633C132.265 89.7288 131.814 89.9298 132.054 89.8545C132.127 89.8319 132.2 89.807 132.273 89.7873C132.323 89.7749 132.613 89.7449 132.399 89.7522C132.186 89.7595 132.412 89.7522 132.448 89.7522C132.534 89.7464 132.62 89.7442 132.705 89.7449C132.82 89.7449 132.932 89.7603 133.046 89.7683C132.616 89.7383 132.927 89.7537 133.046 89.78C133.107 89.7931 133.168 89.8092 133.229 89.8268C133.377 89.8676 133.532 89.8789 133.684 89.86C133.836 89.841 133.983 89.7923 134.117 89.7165C134.25 89.6407 134.367 89.5393 134.462 89.4182C134.556 89.297 134.626 89.1585 134.666 89.0104C134.707 88.8624 134.719 88.7077 134.7 88.5553C134.681 88.403 134.632 88.2558 134.556 88.1222C134.48 87.9887 134.379 87.8713 134.258 87.777C134.137 87.6826 133.999 87.613 133.851 87.5721C133.219 87.3809 132.55 87.3518 131.905 87.4877C131.259 87.6237 130.659 87.9201 130.158 88.3498C129.628 88.8379 129.246 89.4656 129.056 90.1608C128.866 90.856 128.875 91.5907 129.083 92.2809C129.306 93.0767 129.784 93.777 130.444 94.274C131.104 94.771 131.909 95.037 132.735 95.031C133.403 95.0207 134.058 94.8371 134.634 94.4981C135.21 94.1592 135.689 93.6765 136.024 93.0972C136.358 92.5178 136.537 91.8617 136.542 91.1927C136.547 90.5237 136.379 89.8647 136.054 89.2801C135.818 88.8643 135.502 88.4994 135.124 88.2063C134.747 87.9131 134.315 87.6976 133.854 87.5721C133.555 87.4897 133.235 87.5293 132.966 87.6824C132.696 87.8355 132.499 88.0895 132.416 88.3885C132.334 88.6875 132.373 89.007 132.526 89.2767C132.679 89.5464 132.933 89.7443 133.232 89.8268L133.228 89.8326Z" fill="#211715"/>
<path d="M162.044 87.8075C161.272 88.0436 160.596 88.5224 160.118 89.173C159.639 89.8236 159.382 90.6112 159.386 91.4192C159.413 92.2373 159.699 93.0257 160.203 93.6708C160.706 94.316 161.401 94.7848 162.187 95.0098C162.961 95.2364 163.79 95.1866 164.531 94.869C165.272 94.5514 165.88 93.9858 166.25 93.269C166.553 92.6892 166.71 92.0445 166.708 91.3905C166.706 90.7364 166.546 90.0926 166.239 89.5147C165.83 88.803 165.195 88.2484 164.435 87.9391C163.675 87.6298 162.834 87.5835 162.044 87.8075C161.745 87.8898 161.491 88.0877 161.338 88.3574C161.185 88.6271 161.145 88.9467 161.228 89.2457C161.31 89.5448 161.508 89.7989 161.777 89.9522C162.047 90.1054 162.366 90.1452 162.665 90.0628C162.758 90.0365 162.852 90.0248 162.945 90.0029C162.52 90.103 162.787 90.0226 162.918 90.0153C163.056 90.0102 163.194 90.0131 163.331 90.0241C163.522 90.0358 163.23 90.0175 163.217 90.0087C163.283 90.0312 163.352 90.0459 163.422 90.0526C163.495 90.0716 163.562 90.0957 163.632 90.1176C163.846 90.1849 163.559 90.0928 163.566 90.0884C163.584 90.0767 163.76 90.1922 163.78 90.2039L163.853 90.2492C163.958 90.3237 163.947 90.3128 163.82 90.2163C163.918 90.3318 164.025 90.4389 164.14 90.5364L164.045 90.4114C164.072 90.4487 164.098 90.4845 164.123 90.5247C164.148 90.5649 164.17 90.5978 164.192 90.638C164.224 90.6935 164.251 90.7513 164.281 90.8075C164.389 91.0114 164.186 90.5357 164.255 90.7476C164.312 90.9168 164.357 91.0894 164.392 91.2643C164.428 91.4441 164.357 90.9223 164.37 91.0911C164.37 91.1174 164.376 91.143 164.378 91.1693C164.384 91.2424 164.386 91.3155 164.386 91.3885C164.386 91.4916 164.366 91.5954 164.367 91.6977C164.367 91.3688 164.392 91.523 164.367 91.6363C164.351 91.7094 164.334 91.7825 164.314 91.8555C164.299 91.9074 164.283 91.9586 164.265 92.0097C164.224 92.1311 164.129 92.1976 164.288 91.9717C164.228 92.0565 164.192 92.1705 164.137 92.2641C164.104 92.3203 164.064 92.3737 164.031 92.4285C163.907 92.6222 164.177 92.2612 164.073 92.373C163.965 92.4663 163.863 92.5664 163.768 92.6726C163.888 92.5016 163.932 92.5513 163.815 92.6273C163.767 92.6587 163.719 92.6872 163.669 92.7143L163.608 92.7464C163.497 92.799 163.526 92.7881 163.697 92.7135C163.641 92.7256 163.586 92.7442 163.534 92.7691C163.48 92.7852 163.425 92.7998 163.37 92.8122L163.304 92.8254C163.179 92.8465 163.216 92.8414 163.416 92.8115C163.283 92.8016 163.15 92.8016 163.018 92.8115C162.773 92.8049 163.306 92.8699 163.066 92.8188C163.023 92.8093 162.979 92.8012 162.936 92.791C162.808 92.7596 162.685 92.6975 162.557 92.6682C162.807 92.726 162.737 92.7508 162.654 92.704C162.596 92.6719 162.536 92.6434 162.478 92.609C162.42 92.5747 162.364 92.5403 162.309 92.5023C162.281 92.4841 162.254 92.4643 162.227 92.4446C162.156 92.392 162.191 92.4188 162.332 92.525C162.273 92.4271 162.123 92.3379 162.04 92.2502C162.014 92.2143 161.985 92.181 161.953 92.1508L162.054 92.2838C162.027 92.2487 162.002 92.2129 161.977 92.1764C161.916 92.085 161.867 91.9885 161.812 91.8935C161.693 91.6889 161.895 92.1603 161.826 91.9337C161.796 91.8358 161.762 91.7408 161.739 91.6414C161.728 91.5946 161.725 91.5354 161.71 91.4952C161.733 91.6794 161.738 91.7069 161.725 91.5778C161.725 91.5267 161.719 91.4755 161.719 91.4251C161.719 91.3608 161.719 91.2972 161.724 91.2329C161.743 90.9303 161.667 91.4324 161.724 91.2014C161.776 91.0568 161.819 90.9088 161.851 90.7586L161.793 90.896C161.814 90.8472 161.837 90.8012 161.861 90.7578C161.903 90.6782 161.949 90.6009 162 90.5262L162.021 90.494C162.094 90.3953 162.081 90.4107 161.984 90.5408C161.99 90.4765 162.166 90.3559 162.21 90.3091C162.384 90.1264 162.046 90.4158 162.174 90.3296C162.239 90.2857 162.303 90.2404 162.371 90.2002C162.422 90.1695 162.474 90.141 162.528 90.114C162.63 90.0628 162.765 90.0489 162.434 90.1476C162.507 90.1249 162.58 90.0913 162.659 90.0687C162.807 90.0279 162.945 89.9583 163.066 89.864C163.187 89.7696 163.289 89.6523 163.364 89.5187C163.44 89.3852 163.489 89.238 163.508 89.0856C163.527 88.9331 163.516 88.7785 163.475 88.6304C163.434 88.4823 163.365 88.3437 163.27 88.2225C163.176 88.1013 163.059 87.9998 162.926 87.924C162.792 87.8481 162.645 87.7993 162.493 87.7803C162.34 87.7613 162.186 87.7725 162.038 87.8133L162.044 87.8075Z" fill="#211715"/>
<path d="M145.863 94.9389C146.775 95.4144 147.792 95.6532 148.821 95.6332C149.924 95.6711 151.007 95.3364 151.897 94.6832C152.116 94.4639 152.239 94.1666 152.239 93.8566C152.237 93.5469 152.114 93.2501 151.897 93.0293C151.677 92.8107 151.38 92.6877 151.07 92.6873C150.765 92.7059 150.474 92.8263 150.244 93.0293C150.654 92.7106 150.288 92.9847 150.162 93.0512C150.063 93.1031 149.822 93.1798 150.21 93.0402C150.133 93.0687 150.056 93.0994 149.978 93.125C149.763 93.1937 149.545 93.2215 149.327 93.2712C149.425 93.2478 149.58 93.2412 149.388 93.2602C149.323 93.2668 149.26 93.2719 149.196 93.2763C149.042 93.2858 148.887 93.2902 148.733 93.2895C148.595 93.2895 148.457 93.2836 148.319 93.2741C148.256 93.2697 148.193 93.2646 148.13 93.2588C148.01 93.2463 147.875 93.1747 148.161 93.2653C147.966 93.2032 147.751 93.1923 147.553 93.1301C147.468 93.1046 147.384 93.0739 147.3 93.0454C147.059 92.962 147.571 93.1718 147.351 93.0687C147.247 93.019 147.145 92.9679 147.042 92.9138C146.775 92.7573 146.456 92.7136 146.156 92.7923C145.856 92.8711 145.6 93.0658 145.443 93.3337C145.287 93.6015 145.243 93.9206 145.322 94.2207C145.401 94.5208 145.595 94.7773 145.863 94.9338V94.9389Z" fill="#211715"/>
<path d="M148.017 88.2409C148.142 88.6944 148.243 89.1545 148.318 89.6192L148.276 89.3115C148.285 89.3745 148.287 89.4382 148.281 89.5015L148.323 89.1902C148.319 89.2193 148.312 89.2479 148.302 89.2757L148.42 88.9965C148.412 89.0159 148.402 89.0345 148.39 89.0521L148.573 88.8153C148.559 88.8315 148.544 88.8462 148.527 88.8591L148.764 88.6764C148.729 88.6985 148.693 88.7178 148.655 88.7342L148.934 88.6165C148.875 88.6416 148.813 88.6595 148.75 88.6699L149.061 88.6282C149.004 88.6351 148.946 88.6351 148.888 88.6282L149.199 88.6699C149.134 88.6611 149.07 88.645 149.005 88.6362C148.854 88.5877 148.693 88.5804 148.539 88.615C148.384 88.6221 148.234 88.67 148.104 88.7539C147.972 88.8314 147.856 88.9342 147.763 89.0566C147.67 89.1789 147.603 89.3183 147.564 89.4669C147.525 89.6155 147.515 89.7702 147.536 89.9224C147.557 90.0746 147.608 90.2211 147.685 90.3537L147.868 90.5905C148.011 90.7338 148.188 90.8376 148.383 90.8916C148.573 90.9172 148.757 90.9647 148.949 90.972C149.258 90.9727 149.562 90.8974 149.835 90.7527C150.015 90.6656 150.174 90.5403 150.301 90.3854C150.427 90.2305 150.519 90.0499 150.569 89.856C150.635 89.5544 150.633 89.2416 150.562 88.941C150.489 88.4966 150.385 88.0567 150.27 87.6255C150.229 87.4774 150.16 87.3388 150.065 87.2175C149.971 87.0963 149.854 86.9948 149.72 86.919C149.587 86.8431 149.44 86.7943 149.287 86.7753C149.135 86.7563 148.981 86.7676 148.833 86.8084C148.539 86.8906 148.289 87.0831 148.134 87.3456C147.981 87.6198 147.939 87.9422 148.016 88.2467L148.017 88.2409Z" fill="#211715"/>
<path d="M141.179 84.2155C140.949 84.9631 141.099 86.6835 142.515 86.8296C144.386 86.8187 144.486 84.7387 143.856 83.7601C143.698 83.5192 143.473 83.3296 143.209 83.2146C142.945 83.0995 142.653 83.064 142.369 83.1123C142.085 83.1606 141.821 83.2906 141.61 83.4866C141.398 83.6825 141.248 83.9358 141.179 84.2155Z" fill="#211715"/>
<path d="M156.167 84.2155C156.397 84.9631 156.247 86.6835 154.831 86.8296C152.96 86.8187 152.859 84.7387 153.49 83.7602C153.648 83.5192 153.873 83.3295 154.137 83.2144C154.401 83.0993 154.693 83.0637 154.977 83.112C155.261 83.1603 155.525 83.2904 155.737 83.4864C155.948 83.6824 156.097 83.9357 156.167 84.2155Z" fill="#211715"/>
</g>
<defs>
<clipPath id="clip0_147_512">
<rect width="324" height="262" fill="white" transform="translate(0 44)"/>
</clipPath>
</defs>
</svg>
