<svg width="309" height="325" viewBox="0 0 309 325" fill="none" xmlns="http://www.w3.org/2000/svg">
<path d="M154.52 325C113.093 325 74.7684 309.879 46.6102 282.457C16.1305 252.736 0 211.433 0 163.01C0 114.587 16.1105 72.5245 46.5902 42.6826C74.7084 15.1609 113.033 0 154.5 0C195.967 0 234.312 15.1609 262.41 42.6826C292.89 72.5245 309 114.147 309 163.01C309 211.873 292.89 252.736 262.39 282.457C234.232 309.899 195.907 325 154.48 325H154.52Z" fill="#F98F15"/>
<g clip-path="url(#clip0_147_514)">
<path d="M136.527 94.7406C139.156 92.2722 141.759 89.7562 144.269 87.2936C143.846 90.8641 141.595 98.4208 143.98 97.7128C154.021 94.8489 162.104 88.9868 168.468 80.717C169.717 85.5066 171.478 91.4711 173.027 94.3704C175.302 98.6287 182.54 108.178 188.371 109.578C188.885 109.075 189.497 108.684 190.169 108.428C190.842 108.172 191.559 108.057 192.278 108.09C193.169 108.061 194.051 108.274 194.83 108.706C195.609 109.138 196.256 109.773 196.702 110.544C198.205 113.147 198.142 117.943 197.136 120.911C196.421 123.012 195.25 126.228 192.428 128.533C191.807 129.049 191.086 129.431 190.309 129.654C189.533 129.878 188.719 129.939 187.918 129.832L187.484 129.76C187.059 131.194 186.541 132.599 185.933 133.966C184.786 137.074 178.448 147.974 170.429 152.227C170.548 153.763 170.748 155.283 171.016 156.813C171.435 159.209 171.305 161.345 174.645 162.55C174.861 162.63 184.324 167.126 184.663 167.263L185.401 167.561C178.158 171.661 164.45 175.284 154.008 175.24C143.142 175.213 131.649 171.868 123.841 167.936L124.323 167.776C124.973 167.559 135.527 162.63 135.744 162.55C139.083 161.345 138.939 159.209 139.373 156.813C139.612 155.424 139.8 154.142 139.914 152.803C135.958 151.081 132.44 148.173 129.101 144.182C125.589 139.946 122.983 135.037 121.443 129.757C120.59 129.936 119.707 129.92 118.862 129.708C118.016 129.496 117.23 129.095 116.563 128.535C113.743 126.23 112.57 123.014 111.855 120.913C110.843 117.946 110.783 113.149 112.289 110.546C112.735 109.776 113.382 109.14 114.161 108.708C114.94 108.276 115.822 108.063 116.713 108.092C117.414 108.061 118.113 108.169 118.772 108.41C119.43 108.651 120.034 109.019 120.549 109.495L124.561 105.337C128.447 102.162 132.516 98.5067 136.527 94.7406Z" fill="white"/>
<path d="M205.097 264.146C208.952 265.53 213.39 265.474 215.825 264.679C222.442 262.519 226.676 255.734 227.831 248.879C228.987 242.024 227.628 235.021 226.272 228.206C224.328 218.426 222.248 209.194 220.455 203.1C218.891 196.853 215.366 186.295 210.859 181.462C207.577 177.909 203.606 175.056 199.188 173.079C194.554 171.185 186.526 166.859 185.707 167.383C178.547 171.555 164.6 175.28 154.009 175.238C142.897 175.211 131.128 171.712 123.316 167.665C121.84 167.349 114.872 171.007 109.804 173.078C105.386 175.056 101.415 177.908 98.132 181.462C93.6264 186.297 90.1082 196.852 88.541 203.1C86.7476 209.193 84.6687 218.425 82.7249 228.205C81.3695 235.023 80.012 242.024 81.1686 248.879C82.3252 255.733 86.5582 262.52 93.1753 264.679C95.6099 265.473 100.048 265.53 103.904 264.146L124.959 257.154H183.957L205.097 264.146Z" fill="white"/>
<path d="M198.509 239.187C196.604 237.512 193.616 235.008 191.127 232.466C190.434 231.758 190.308 229.971 191.148 228.751C191.935 227.607 193.869 227.585 194.654 227.914C198.651 229.709 202.278 232.229 205.352 235.348C210.783 241.297 206.716 249.84 201.75 256.547C199.186 260.011 195.339 264.303 191.946 264.604C190.252 264.767 188.55 264.378 187.096 263.496C185.641 262.614 184.512 261.285 183.876 259.709L183.996 257.877C181.796 255.393 178.975 252.046 178.203 250.398C178.019 249.86 177.966 249.285 178.048 248.722C178.13 248.159 178.345 247.623 178.675 247.159C179.578 246.004 180.858 246.112 181.861 246.232C180.973 245.464 180.104 244.652 179.259 243.778C178.91 243.359 178.66 242.868 178.526 242.341C178.393 241.813 178.378 241.262 178.485 240.728C178.722 239.948 179.209 239.266 179.872 238.79C180.391 238.465 180.976 238.259 181.584 238.188C182.193 238.118 182.809 238.183 183.389 238.38L183.273 238.291C182.016 237.316 180.965 236.119 180.947 234.53C180.946 234.074 181.042 233.623 181.229 233.208C181.416 232.792 181.69 232.421 182.032 232.119C182.374 231.818 182.776 231.592 183.213 231.458C183.649 231.324 184.109 231.285 184.562 231.343C186.441 231.559 188.32 232.87 189.851 233.975C191.937 235.477 196.484 238.245 199.355 240.092L198.509 239.187Z" fill="white"/>
<path d="M118.2 231.384C118.377 230.953 118.437 230.483 118.376 230.021C118.314 229.559 118.133 229.121 117.849 228.751C117.062 227.607 115.128 227.585 114.343 227.914C110.346 229.708 106.718 232.229 103.644 235.348C98.2135 241.297 102.28 249.84 107.246 256.547C109.81 260.011 113.657 264.303 117.051 264.604C118.744 264.766 120.445 264.377 121.899 263.495C123.353 262.613 124.482 261.284 125.118 259.709L124.998 257.876C127.198 255.392 130.019 252.045 130.791 250.397C130.975 249.86 131.028 249.286 130.947 248.723C130.866 248.16 130.652 247.625 130.323 247.161C129.42 246.006 128.14 246.114 127.137 246.234C128.025 245.466 128.895 244.655 129.74 243.78C130.088 243.362 130.338 242.871 130.472 242.343C130.606 241.815 130.62 241.264 130.513 240.73C130.277 239.95 129.789 239.268 129.127 238.792C128.608 238.467 128.023 238.261 127.414 238.191C126.806 238.12 126.189 238.185 125.609 238.382L125.725 238.293C126.983 237.319 128.034 236.121 128.051 234.532C128.052 234.076 127.956 233.626 127.769 233.21C127.582 232.794 127.308 232.423 126.966 232.122C126.624 231.82 126.222 231.595 125.786 231.461C125.349 231.327 124.889 231.287 124.437 231.345C122.557 231.561 120.678 232.872 119.146 233.977C117.061 235.48 112.513 238.247 109.643 240.094L110.49 239.187C112.136 237.495 115.4 234.25 117.957 231.734C118.057 231.632 118.139 231.513 118.2 231.384Z" fill="white"/>
<path d="M183.998 257.876C181.798 255.392 178.978 252.045 178.205 250.397C178.021 249.859 177.968 249.284 178.05 248.721C178.132 248.158 178.347 247.622 178.677 247.158C179.58 246.003 180.86 246.111 181.863 246.231C180.975 245.464 180.105 244.652 179.26 243.778C178.912 243.359 178.662 242.868 178.528 242.34C178.395 241.812 178.381 241.261 178.488 240.727C178.724 239.947 179.211 239.265 179.873 238.789C180.392 238.464 180.977 238.258 181.586 238.188C182.194 238.117 182.811 238.182 183.391 238.38L183.275 238.29C182.017 237.316 180.966 236.118 180.949 234.529C180.948 234.073 181.044 233.623 181.231 233.207C181.418 232.791 181.692 232.42 182.034 232.119C182.376 231.817 182.778 231.592 183.214 231.458C183.651 231.324 184.111 231.284 184.563 231.342C186.443 231.558 188.322 232.869 189.853 233.974C191.939 235.477 196.486 238.244 199.357 240.091L198.509 239.184C196.605 237.508 193.616 235.004 191.127 232.463C190.434 231.755 190.308 229.967 191.148 228.747C191.935 227.604 193.869 227.581 194.654 227.91C197.579 229.194 200.299 230.898 202.73 232.967C205.202 225.247 205.519 217.001 203.648 209.115C201.601 201.248 196.168 195.725 189.27 192.764C185.375 191.092 177.692 190.832 172.971 192.12C165.991 194.023 160.058 197.516 156.009 202.355C155.824 202.575 155.593 202.753 155.332 202.875C155.071 202.996 154.787 203.06 154.499 203.06C154.211 203.06 153.926 202.996 153.665 202.875C153.404 202.753 153.173 202.575 152.989 202.355C148.941 197.519 143.007 194.023 136.027 192.12C131.305 190.832 123.622 191.092 119.728 192.764C112.829 195.723 107.396 201.244 105.35 209.115C103.478 217.001 103.796 225.247 106.267 232.967C108.698 230.898 111.419 229.194 114.343 227.91C115.128 227.581 117.062 227.604 117.85 228.747C118.133 229.117 118.315 229.555 118.376 230.017C118.438 230.479 118.377 230.949 118.2 231.381C118.139 231.51 118.056 231.629 117.955 231.731C115.398 234.247 112.134 237.493 110.488 239.184L109.641 240.091C112.511 238.244 117.059 235.477 119.144 233.974C120.678 232.869 122.555 231.561 124.435 231.342C124.888 231.284 125.347 231.324 125.784 231.458C126.22 231.592 126.623 231.817 126.965 232.119C127.307 232.42 127.58 232.791 127.767 233.207C127.954 233.623 128.051 234.073 128.049 234.529C128.032 236.117 126.981 237.316 125.723 238.29L125.607 238.38C126.187 238.182 126.804 238.117 127.412 238.188C128.021 238.258 128.606 238.464 129.125 238.789C129.788 239.265 130.275 239.947 130.511 240.727C130.618 241.261 130.604 241.812 130.47 242.34C130.336 242.868 130.086 243.359 129.738 243.778C128.89 244.648 128.02 245.46 127.136 246.231C128.138 246.111 129.418 246.001 130.321 247.158C130.651 247.622 130.866 248.158 130.948 248.721C131.03 249.284 130.977 249.859 130.793 250.397C130.021 252.045 127.201 255.392 125 257.876L125.088 259.195C131.806 264.454 139.396 268.496 147.513 271.136C152.021 272.666 156.909 272.666 161.417 271.136C169.557 268.495 177.171 264.45 183.912 259.184C183.934 258.853 183.964 258.392 183.998 257.876Z" fill="#FCDC4A"/>
<path d="M118.81 168.953L119.131 168.945C121.122 168.098 122.7 167.533 123.316 167.665C123.489 167.754 123.677 167.841 123.85 167.931L124.323 167.773C124.974 167.556 135.528 162.627 135.745 162.548C139.084 161.343 138.94 159.206 139.373 156.809C139.613 155.422 139.801 154.139 139.915 152.801C135.959 151.079 132.441 148.171 129.102 144.18C125.59 139.943 122.984 135.034 121.444 129.755C120.591 129.934 119.708 129.917 118.863 129.706C118.017 129.494 117.231 129.093 116.564 128.533C113.744 126.228 112.57 123.012 111.856 120.911C110.844 117.943 110.784 113.147 112.29 110.544C112.736 109.773 113.383 109.138 114.162 108.706C114.941 108.274 115.823 108.061 116.714 108.09C117.414 108.059 118.114 108.167 118.773 108.407C119.431 108.648 120.035 109.017 120.55 109.492L124.561 105.337C128.447 102.162 132.516 98.5095 136.528 94.7434C139.156 92.275 141.759 89.759 144.269 87.2964C143.846 90.8669 141.595 98.4236 143.98 97.7155C154.021 94.8516 162.104 88.9896 168.469 80.7198C169.717 85.5093 171.479 91.4738 173.028 94.3731C175.303 98.6314 182.54 108.181 188.371 109.58C188.885 109.078 189.497 108.686 190.17 108.43C190.842 108.174 191.56 108.06 192.278 108.093C193.169 108.064 194.051 108.277 194.83 108.709C195.609 109.141 196.256 109.776 196.702 110.547C198.206 113.149 198.142 117.946 197.136 120.914C196.422 123.015 195.251 126.23 192.429 128.536C191.807 129.052 191.086 129.434 190.31 129.657C189.533 129.881 188.719 129.941 187.918 129.835L187.484 129.763C187.059 131.197 186.541 132.602 185.933 133.969C184.786 137.077 178.448 147.977 170.429 152.229C170.548 153.766 170.748 155.286 171.016 156.815C171.435 159.211 171.305 161.348 174.645 162.553C174.862 162.632 184.324 167.129 184.664 167.266L184.931 167.374L185.81 167.353C185.866 167.345 185.923 167.344 185.979 167.348L187.586 167.31C197.223 170.762 205.606 162.041 205.546 155.306C205.516 151.456 204.811 147.641 203.463 144.035C201.748 139.078 198.426 129.007 198.186 111.014C198.663 105.569 198.167 97.7025 197.952 94.6791C197.205 84.1979 192.511 72.4933 185.758 65.9882C183.068 63.3978 182.136 62.0799 179.523 60.5426L176.244 58.6126L173.492 57.4989C167.285 54.9184 160.612 53.6404 153.888 53.7444C140.382 53.7444 128.36 60.6912 123.026 65.7904C114.175 74.25 108.565 89.702 109.27 111.009C109.27 125.451 108.084 135.865 106.423 141.787C105.175 146.667 104.46 151.668 104.288 156.702C104.24 162.68 109.983 169.165 118.81 168.953Z" fill="#FCDC4A"/>
<path d="M86.8685 202.64C85.4554 207.465 84.3183 212.365 83.2383 217.271C81.9372 223.19 80.6071 229.137 79.71 235.129C78.8491 240.88 78.5 246.904 80.258 252.53C81.6093 257.168 84.4331 261.243 88.3041 264.14C92.9565 267.47 99.069 267.659 104.363 265.817C104.8 265.685 105.17 265.39 105.396 264.993C105.621 264.596 105.685 264.128 105.574 263.685C105.448 263.245 105.154 262.871 104.755 262.645C104.356 262.419 103.884 262.358 103.44 262.476C99.283 263.919 94.6039 264.054 90.7966 261.649C87.2741 259.424 84.8872 255.642 83.6402 251.735C82.05 246.745 82.2719 241.342 83.0265 236.224C83.8708 230.499 85.138 224.816 86.3683 219.165C87.5076 213.933 88.7046 208.7 90.2111 203.561C90.8392 201.417 87.4924 200.501 86.8657 202.64H86.8685Z" fill="#211715"/>
<path d="M218.783 203.561C220.105 208.068 221.18 212.648 222.2 217.232C223.45 222.845 224.668 228.484 225.637 234.153C227.195 243.277 227.354 254.551 219.304 260.879C215.338 263.997 210.192 264.089 205.558 262.476C205.338 262.415 205.109 262.399 204.883 262.427C204.656 262.455 204.438 262.527 204.24 262.64C204.042 262.752 203.868 262.902 203.728 263.082C203.588 263.261 203.484 263.466 203.424 263.686C203.363 263.905 203.346 264.134 203.375 264.36C203.403 264.586 203.475 264.804 203.588 265.002C203.7 265.2 203.851 265.374 204.03 265.513C204.21 265.653 204.416 265.756 204.636 265.817C209.362 267.462 214.86 267.527 219.293 265.033C223.467 262.686 226.377 258.648 228.121 254.273C230.217 249.028 230.294 243.2 229.631 237.664C228.894 231.52 227.52 225.436 226.22 219.392C225.012 213.775 223.746 208.156 222.13 202.64C221.504 200.504 218.154 201.413 218.783 203.561Z" fill="#211715"/>
<path d="M90.2138 203.561C91.4394 198.436 93.2083 193.457 95.4907 188.707C96.5299 186.44 97.9015 184.34 99.5604 182.476C101.614 180.292 103.942 178.382 106.488 176.796C109.104 175.314 111.813 174.002 114.597 172.867C116.911 171.822 119.196 170.682 121.584 169.819C121.969 169.68 122.358 169.546 122.756 169.446C122.843 169.43 122.929 169.41 123.014 169.385C123.258 169.295 123.005 169.515 122.891 169.391C122.955 169.391 123.019 169.387 123.083 169.378C123.387 169.416 122.667 169.269 122.669 169.277C122.7 169.404 123.471 169.679 123.596 169.74C123.915 169.895 124.235 170.048 124.556 170.197C125.222 170.506 125.893 170.803 126.57 171.089C129.509 172.336 132.524 173.395 135.597 174.259C142.094 176.157 148.841 177.064 155.61 176.949C161.74 176.705 167.818 175.714 173.708 173.999C176.481 173.227 179.204 172.285 181.86 171.177C183.017 170.691 184.163 170.176 185.277 169.598C185.533 169.465 185.788 169.328 186.041 169.188C186.273 169.06 186.98 168.803 186.25 169.022C186.303 169.006 185.756 169.08 185.93 169.072C186.164 169.063 185.874 169.077 185.884 169.06C185.839 169.141 185.632 168.978 185.874 169.071C185.955 169.102 186.049 169.115 186.134 169.139C188.002 169.772 189.815 170.557 191.555 171.485C193.869 172.579 196.209 173.615 198.54 174.673C203.54 176.942 208.527 180.513 211.527 185.184C214.469 189.765 216.342 195.045 217.87 200.239C218.194 201.341 218.496 202.447 218.777 203.559C219.321 205.72 222.668 204.804 222.122 202.638C220.812 197.226 218.926 191.969 216.498 186.956C215.355 184.518 213.87 182.256 212.088 180.236C209.948 177.932 207.529 175.904 204.886 174.198C202.36 172.686 199.726 171.359 197.007 170.228C194.664 169.146 192.351 167.997 189.99 166.955C188.539 166.315 186.436 165.079 184.834 165.883C182.606 167.058 180.309 168.099 177.956 169C172.135 171.119 166.078 172.525 159.917 173.186C153.319 173.824 146.66 173.373 140.208 171.851C136.939 171.11 133.724 170.151 130.583 168.981C129.178 168.456 127.792 167.887 126.43 167.258C125.363 166.766 124.15 165.847 122.941 165.919C120.749 166.05 118.522 167.311 116.564 168.187C113.833 169.408 111.063 170.568 108.357 171.844C102.943 174.389 97.7309 178.359 94.47 183.431C91.3964 188.215 89.4151 193.776 87.811 199.2C87.4737 200.339 87.1605 201.484 86.8713 202.636C86.3263 204.802 89.6717 205.722 90.2167 203.557L90.2138 203.561Z" fill="#211715"/>
<path d="M124.785 169.444C125.797 169.091 126.768 168.583 127.737 168.14C129.308 167.422 130.876 166.7 132.442 165.975C133.671 165.406 134.9 164.833 136.134 164.267C136.262 164.209 136.391 164.153 136.517 164.093C136.598 164.054 136.778 163.971 136.403 164.139C135.928 164.352 136.442 164.131 136.566 164.082C136.817 163.981 137.072 163.878 137.315 163.761C138.447 163.238 139.388 162.376 140.005 161.294C140.503 160.252 140.816 159.133 140.93 157.985C141.197 156.26 141.494 154.547 141.653 152.808C141.649 152.35 141.466 151.911 141.141 151.587C140.816 151.263 140.377 151.079 139.918 151.076C139.461 151.085 139.025 151.271 138.701 151.593C138.378 151.916 138.192 152.352 138.183 152.808C138.059 154.179 137.829 155.528 137.613 156.887C137.527 157.757 137.344 158.615 137.07 159.445C136.968 159.7 137.181 159.232 137.048 159.473C136.996 159.57 136.943 159.664 136.888 159.757C136.868 159.791 136.671 160.063 136.781 159.922C136.885 159.792 136.697 160.006 136.695 160.008C136.366 160.337 135.977 160.599 135.548 160.779C135.177 160.95 134.79 161.09 134.417 161.261C131.796 162.463 129.185 163.686 126.564 164.888C125.884 165.2 125.205 165.512 124.522 165.818C124.305 165.915 124.089 166.01 123.872 166.106C123.411 166.311 124.242 165.974 123.864 166.106C123.426 166.238 123.056 166.533 122.831 166.93C122.605 167.327 122.541 167.795 122.652 168.238C122.778 168.678 123.072 169.052 123.471 169.278C123.871 169.504 124.343 169.565 124.786 169.447L124.785 169.444Z" fill="#211715"/>
<path d="M168.725 152.612C168.87 154.231 169.107 155.836 169.372 157.44C169.474 158.311 169.635 159.174 169.854 160.024C170.144 161.037 170.702 161.954 171.47 162.678C171.908 163.078 172.397 163.417 172.925 163.689C173.26 163.857 173.608 164.003 173.957 164.138C174.689 164.42 173.584 163.951 173.857 164.087C176.2 165.255 178.599 166.321 180.966 167.439C182.04 167.944 183.107 168.477 184.203 168.936C184.647 169.056 185.12 168.996 185.519 168.769C185.919 168.543 186.213 168.168 186.338 167.727C186.448 167.284 186.384 166.816 186.158 166.419C185.933 166.022 185.563 165.728 185.125 165.595C186.011 165.966 184.981 165.514 184.773 165.416C184.266 165.178 183.76 164.94 183.255 164.701C181.885 164.055 180.516 163.408 179.148 162.76C178.089 162.26 177.031 161.757 175.967 161.263C175.606 161.094 175.232 160.956 174.869 160.791C174.65 160.69 174.436 160.575 174.23 160.449C174.205 160.434 173.881 160.214 174.021 160.318C174.136 160.405 173.917 160.228 173.921 160.231C173.868 160.184 173.449 159.72 173.648 159.981C173.514 159.795 173.396 159.598 173.296 159.393C173.205 159.217 173.31 159.436 173.32 159.465C173.266 159.324 173.218 159.181 173.176 159.036C173.118 158.84 173.07 158.641 173.031 158.441C172.932 157.971 172.869 157.494 172.796 157.019C172.574 155.551 172.33 154.097 172.196 152.616C172.184 152.16 171.998 151.727 171.675 151.404C171.352 151.082 170.917 150.896 170.461 150.884C170.002 150.887 169.562 151.071 169.238 151.395C168.913 151.719 168.729 152.158 168.726 152.616L168.725 152.612Z" fill="#211715"/>
<path d="M173.954 55.8254C166.988 53.003 159.493 51.7178 151.984 52.0578C144.371 52.5003 136.962 54.6856 130.33 58.4446C125.378 61.108 121.064 64.8143 117.688 69.3069C114.212 74.2177 111.665 79.7212 110.17 85.5463C107.908 93.8074 107.262 102.476 107.533 111.012C107.605 113.235 111.075 113.246 111.002 111.012C110.591 98.0643 112.187 84.0638 119.381 72.9431C122.095 68.7925 125.698 65.2956 129.93 62.7051C135.842 58.9467 142.522 56.5591 149.479 55.7178C157.493 54.913 165.583 56.0968 173.029 59.1642C173.472 59.2832 173.945 59.223 174.344 58.9966C174.744 58.7702 175.038 58.3958 175.163 57.9545C175.274 57.5126 175.21 57.045 174.985 56.6487C174.76 56.2523 174.391 55.9576 173.954 55.8254Z" fill="#211715"/>
<path d="M199.922 111.01C200.186 107.193 200.203 103.363 199.974 99.5445C199.877 96.1535 199.561 92.7722 199.027 89.422C197.632 81.5289 194.458 73.6705 189.397 67.4036C188.03 65.8102 186.582 64.2875 185.06 62.8414C183.674 61.3832 182.109 60.1063 180.402 59.0414C178.482 57.8938 176.735 60.8876 178.652 62.033C180 62.8683 181.238 63.8712 182.334 65.0175C183.629 66.3166 184.986 67.571 186.193 68.9553C188.558 71.7609 190.506 74.892 191.976 78.2522C193.555 81.7584 194.727 85.4334 195.47 89.2055C196.029 92.2928 196.358 95.4171 196.456 98.5528C196.736 102.7 196.736 106.861 196.456 111.008C196.459 111.466 196.643 111.905 196.968 112.229C197.292 112.553 197.731 112.737 198.19 112.74C198.648 112.731 199.084 112.546 199.407 112.223C199.73 111.9 199.916 111.465 199.925 111.008L199.922 111.01Z" fill="#211715"/>
<path d="M107.536 111.009C107.53 120.397 107.339 130.08 105.269 139.262C104.857 141.089 104.325 142.881 103.96 144.719C103.454 147.276 103.078 149.864 102.817 152.457C102.511 154.574 102.489 156.722 102.752 158.844C103.106 160.785 103.905 162.619 105.086 164.201C106.686 166.3 108.768 167.984 111.157 169.113C113.545 170.241 116.17 170.78 118.81 170.685C121.04 170.65 121.047 167.185 118.81 167.221C114.749 167.285 110.702 165.788 108.146 162.538C107.102 161.227 106.404 159.675 106.114 158.025C105.825 156.437 106.114 154.127 106.301 152.323C106.54 149.994 106.894 147.674 107.359 145.38C107.714 143.631 108.227 141.926 108.615 140.187C109.406 136.481 109.958 132.728 110.267 128.952C110.821 122.99 111.002 116.998 111.006 111.012C111.006 108.784 107.536 108.78 107.536 111.012V111.009Z" fill="#211715"/>
<path d="M196.452 111.01C196.59 120.564 197.555 130.208 200.177 139.427C201.122 142.747 202.457 145.963 203.185 149.34C203.481 150.717 203.67 152.115 203.752 153.521C203.79 154.175 203.824 154.834 203.811 155.489C203.813 155.88 203.775 156.271 203.697 156.655C203.31 158.494 202.479 160.211 201.277 161.658C199.801 163.5 197.848 164.904 195.63 165.718C193.168 166.559 190.491 166.53 188.048 165.635C185.934 164.902 185.025 168.247 187.125 168.975C189.593 169.806 192.235 169.981 194.791 169.482C197.347 168.983 199.729 167.827 201.701 166.129C203.468 164.673 204.904 162.858 205.913 160.805C206.932 158.686 207.391 156.342 207.246 153.996C207.092 150.88 206.524 147.797 205.558 144.83C205.11 143.431 204.607 142.051 204.167 140.649C203.085 137.189 202.227 133.663 201.597 130.093C200.525 123.788 199.966 117.407 199.924 111.012C199.892 108.784 196.422 108.778 196.455 111.012L196.452 111.01Z" fill="#211715"/>
<path d="M121.774 108.268C120.665 107.28 119.288 106.644 117.817 106.438C116.346 106.233 114.847 106.467 113.51 107.113C112.56 107.625 111.736 108.342 111.1 109.212C110.463 110.083 110.028 111.084 109.828 112.143C109.284 114.668 109.262 117.277 109.765 119.811C110.267 122.344 111.283 124.748 112.75 126.876C114.818 129.872 117.748 132.022 121.535 131.506C121.978 131.381 122.353 131.087 122.579 130.688C122.806 130.289 122.866 129.817 122.747 129.374C122.614 128.938 122.319 128.569 121.922 128.344C121.525 128.119 121.056 128.055 120.613 128.165C118.017 128.518 115.983 125.736 114.918 123.774C113.809 121.795 113.126 119.607 112.91 117.35C112.792 116.084 112.844 114.808 113.065 113.555C113.157 113.028 113.298 112.51 113.486 112.009C113.588 111.769 113.709 111.537 113.848 111.316C113.874 111.274 114.145 110.883 114.026 111.037C114.571 110.407 115.324 109.994 116.149 109.873C116.707 109.766 117.283 109.787 117.833 109.933C118.382 110.08 118.892 110.348 119.323 110.719C120.975 112.211 123.437 109.768 121.776 108.269L121.774 108.268Z" fill="#211715"/>
<path d="M189.67 110.717C190.435 110.074 191.42 109.754 192.416 109.824C193.413 109.894 194.344 110.349 195.011 111.092C194.776 110.803 195.107 111.253 195.144 111.315C195.283 111.536 195.404 111.768 195.506 112.008C195.679 112.469 195.812 112.944 195.902 113.429C196.145 114.721 196.205 116.04 196.082 117.349C195.87 119.562 195.207 121.709 194.135 123.658C193.071 125.655 191.017 128.522 188.379 128.163C187.936 128.056 187.469 128.122 187.073 128.346C186.677 128.571 186.381 128.938 186.245 129.372C186.126 129.815 186.187 130.287 186.413 130.686C186.64 131.085 187.015 131.379 187.457 131.504C193.629 132.344 197.215 126.339 198.844 121.264C199.64 118.632 199.817 115.852 199.362 113.14C199.248 112.04 198.91 110.975 198.368 110.01C197.826 109.045 197.092 108.201 196.211 107.531C194.839 106.652 193.215 106.249 191.59 106.382C189.965 106.515 188.429 107.178 187.218 108.268C185.556 109.766 188.018 112.211 189.672 110.717H189.67Z" fill="#211715"/>
<path d="M186.453 126.811C186.141 128.262 185.731 129.69 185.224 131.085C185.052 131.572 184.778 132.312 184.64 132.635C184.517 132.928 184.379 133.213 184.259 133.506C184.231 133.578 184.065 133.996 184.181 133.716C184.296 133.436 184.131 133.828 184.1 133.892C184.035 134.037 183.97 134.178 183.902 134.319C183.734 134.668 183.559 135.014 183.377 135.355C182.943 136.175 182.478 136.979 181.993 137.77C179.582 141.833 176.509 145.465 172.9 148.516C170.955 150.172 168.655 151.36 166.177 151.986C164.003 152.491 164.923 155.829 167.099 155.327C172.263 154.136 176.56 150.368 179.928 146.454C182.801 143.217 185.206 139.595 187.073 135.693C187.251 135.301 187.408 134.899 187.579 134.504C187.349 135.047 187.876 133.827 187.89 133.792C188.019 133.481 188.143 133.169 188.263 132.854C188.911 131.189 189.425 129.476 189.8 127.729C189.911 127.287 189.848 126.818 189.622 126.422C189.396 126.025 189.026 125.73 188.589 125.598C188.145 125.481 187.673 125.541 187.274 125.768C186.875 125.994 186.581 126.368 186.455 126.809L186.453 126.811Z" fill="#211715"/>
<path d="M119.095 127.612C120.22 132.608 122.239 137.361 125.055 141.641C128.118 146.261 132.154 150.58 137.034 153.306C139.543 154.712 142.288 155.651 145.134 156.076C145.578 156.184 146.045 156.118 146.441 155.893C146.838 155.668 147.134 155.301 147.268 154.866C147.387 154.423 147.327 153.951 147.1 153.553C146.873 153.154 146.498 152.86 146.057 152.735C135.987 151.249 128.452 142.53 124.643 133.588C123.704 131.36 122.967 129.053 122.442 126.694C121.948 124.52 118.602 125.44 119.095 127.615V127.612Z" fill="#211715"/>
<path d="M148.191 138.125C150.248 139.187 152.54 139.717 154.855 139.666C157.255 139.768 159.621 139.071 161.581 137.685C161.904 137.359 162.086 136.918 162.086 136.46C162.086 136.001 161.904 135.561 161.581 135.235C161.251 134.92 160.811 134.745 160.355 134.745C159.898 134.745 159.459 134.92 159.128 135.235C159.654 134.825 159.246 135.138 159.111 135.225C158.976 135.311 158.84 135.389 158.699 135.463C158.627 135.501 158.555 135.535 158.478 135.573C158.197 135.717 158.55 135.542 158.55 135.55C158.367 135.635 158.177 135.703 157.982 135.755C157.463 135.919 156.931 136.039 156.392 136.116C156.649 136.078 156.346 136.116 156.242 136.129C156.085 136.144 155.929 136.157 155.773 136.167C155.397 136.192 155.02 136.201 154.643 136.199C154.305 136.199 153.967 136.186 153.631 136.162C153.476 136.152 153.321 136.14 153.167 136.124C153.149 136.124 152.589 136.044 152.945 136.1C152.443 136.023 151.946 135.913 151.459 135.771C151.251 135.708 151.048 135.634 150.843 135.564C150.399 135.413 151.098 135.696 150.698 135.508C150.443 135.388 150.192 135.263 149.943 135.132C149.543 134.91 149.073 134.85 148.631 134.966C148.189 135.082 147.808 135.364 147.569 135.753C147.342 136.151 147.28 136.622 147.396 137.065C147.513 137.508 147.798 137.888 148.192 138.123L148.191 138.125Z" fill="#211715"/>
<path d="M153.971 122.452C154.278 123.558 154.524 124.68 154.707 125.813L154.645 125.352C154.667 125.506 154.671 125.662 154.657 125.816L154.72 125.356C154.709 125.427 154.692 125.497 154.668 125.564L154.843 125.151C154.823 125.198 154.799 125.243 154.771 125.285L155.043 124.934C155.01 124.974 154.973 125.011 154.932 125.043L155.283 124.772C155.198 124.826 155.109 124.874 155.017 124.916L155.432 124.742C155.288 124.803 155.137 124.847 154.982 124.872L155.443 124.811C155.303 124.827 155.161 124.827 155.021 124.811L155.482 124.872C155.323 124.851 155.167 124.812 155.008 124.791C154.784 124.719 154.545 124.708 154.316 124.76C154.087 124.769 153.864 124.84 153.671 124.965C153.274 125.197 152.985 125.577 152.869 126.021C152.752 126.466 152.817 126.938 153.049 127.335C153.159 127.53 153.308 127.701 153.486 127.838C153.664 127.974 153.868 128.073 154.086 128.129C154.447 128.178 154.801 128.273 155.17 128.286C155.725 128.289 156.274 128.159 156.768 127.906C157.081 127.764 157.359 127.554 157.58 127.291C157.802 127.029 157.961 126.72 158.048 126.387C158.161 125.847 158.155 125.289 158.031 124.751C157.848 123.668 157.597 122.595 157.318 121.533C157.196 121.09 156.902 120.713 156.502 120.487C156.102 120.26 155.628 120.201 155.184 120.323C154.741 120.445 154.364 120.738 154.137 121.138C153.909 121.537 153.851 122.011 153.973 122.454L153.971 122.452Z" fill="#211715"/>
<path d="M136.178 112.931C135.616 114.755 135.982 118.951 139.444 119.308C144.018 119.281 144.261 114.208 142.721 111.822C141.462 109.869 137.756 109.057 136.178 112.931Z" fill="#211715"/>
<path d="M172.812 112.931C173.374 114.755 173.007 118.951 169.546 119.308C164.972 119.28 164.729 114.208 166.268 111.822C167.529 109.869 171.237 109.057 172.812 112.931Z" fill="#211715"/>
<path d="M166.904 81.5917C167.655 84.4303 168.456 87.2603 169.405 90.0405C170.092 92.2186 171.008 94.3182 172.136 96.3045C174.524 100.317 177.501 103.949 180.967 107.081C182.827 108.87 185.044 110.249 187.473 111.129C189.606 111.806 190.519 108.458 188.395 107.788C184.636 106.595 181.333 102.84 178.819 99.7646C176.304 96.8069 174.329 93.4316 172.982 89.7922C171.925 86.7984 171.059 83.7374 170.247 80.67C169.677 78.5163 166.33 79.43 166.901 81.591L166.904 81.5917Z" fill="#211715"/>
<path d="M167.213 79.5334C163.605 84.299 159.142 88.3532 154.049 91.4891C151.542 93.0001 148.885 94.2498 146.122 95.2184C145.447 95.4542 144.766 95.6748 144.077 95.8803C143.887 95.915 143.701 95.9692 143.522 96.0419C143.316 96.1755 143.574 96.0123 143.686 96.0268C144.047 96.0755 144.38 96.25 144.626 96.5197C144.842 96.7557 144.576 96.6966 144.638 96.4245C144.673 96.2736 144.655 96.5197 144.659 96.5616C144.652 96.467 144.642 96.3689 144.643 96.2729C144.644 95.7815 144.671 95.2906 144.723 94.802C144.971 92.5061 145.698 89.7808 146.007 87.2958C146.201 85.7325 144.024 85.1118 143.043 86.0688C136.682 92.3011 130.229 98.4656 123.335 104.113C123.013 104.439 122.832 104.879 122.832 105.337C122.832 105.796 123.013 106.236 123.335 106.562C123.665 106.878 124.105 107.054 124.562 107.054C125.019 107.054 125.458 106.878 125.788 106.562C132.682 100.918 139.139 94.7543 145.497 88.5184L142.533 87.2914C142.489 87.6437 142.51 87.4076 142.526 87.3412C142.49 87.4899 142.479 87.6494 142.454 87.8003C142.406 88.0962 142.353 88.3914 142.299 88.6859C142.18 89.3297 142.053 89.9713 141.929 90.6137C141.667 91.9705 141.416 93.3303 141.258 94.7038C141.024 96.7572 141.369 100.01 144.287 99.4147C145.822 99.0443 147.321 98.5425 148.769 97.9149C150.385 97.2822 151.966 96.5645 153.505 95.7648C156.449 94.21 159.22 92.3502 161.773 90.216C164.697 87.7673 167.343 85.0057 169.663 81.9808C169.975 81.649 170.149 81.211 170.149 80.756C170.149 80.301 169.975 79.863 169.663 79.5312C169.337 79.209 168.896 79.0283 168.437 79.0283C167.977 79.0283 167.537 79.209 167.21 79.5312L167.213 79.5334Z" fill="#211715"/>
<path d="M123.121 259.828C130.124 265.462 138.077 269.805 146.606 272.652C151.113 274.236 155.993 274.426 160.61 273.197C164.963 271.923 169.177 270.214 173.187 268.098C177.705 265.811 181.959 263.037 185.874 259.828C186.196 259.501 186.377 259.061 186.377 258.603C186.377 258.144 186.196 257.704 185.874 257.378C185.544 257.062 185.104 256.886 184.647 256.886C184.19 256.886 183.75 257.062 183.42 257.378C176.886 262.597 169.48 266.622 161.543 269.267C157.49 270.751 153.073 270.924 148.917 269.762C144.981 268.566 141.165 267.006 137.519 265.102C133.268 262.969 129.262 260.38 125.573 257.379C125.241 257.066 124.802 256.892 124.346 256.892C123.89 256.892 123.451 257.066 123.119 257.379C122.797 257.706 122.617 258.146 122.617 258.604C122.617 259.063 122.797 259.502 123.119 259.829L123.121 259.828Z" fill="#211715"/>
<path d="M107.935 232.51C106.07 226.723 105.452 220.608 106.119 214.566C106.662 209.394 108.343 204.351 111.86 200.425C114.993 196.799 119.255 194.328 123.962 193.409C129.122 192.565 134.414 193.114 139.29 194.997C141.88 195.974 144.338 197.268 146.608 198.851C147.682 199.603 148.699 200.435 149.649 201.338C150.589 202.229 151.384 203.461 152.459 204.177C153.066 204.571 153.775 204.781 154.499 204.781C155.223 204.781 155.931 204.571 156.538 204.177C157.649 203.438 158.47 202.161 159.447 201.245C161.413 199.427 163.618 197.886 166.001 196.663C168.493 195.355 171.134 194.353 173.867 193.679C176.348 193.129 178.892 192.923 181.429 193.067C183.818 193.08 186.188 193.492 188.441 194.286C191.904 195.678 194.973 197.896 197.377 200.748C199.781 203.599 201.448 206.996 202.231 210.641C203.461 216.382 203.468 222.318 202.252 228.062C201.941 229.564 201.544 231.048 201.062 232.505C200.362 234.627 203.712 235.536 204.408 233.426C206.387 227.295 207.043 220.816 206.333 214.414C205.694 208.538 203.875 203.01 200.008 198.45C196.727 194.583 191.934 191.305 186.925 190.248C181.365 189.068 175.592 189.381 170.193 191.156C164.595 193.032 159.265 196.087 155.31 200.525C155.11 200.748 154.763 201.324 154.502 201.324C154.213 201.324 153.826 200.67 153.606 200.426C152.671 199.389 151.659 198.424 150.579 197.539C148.288 195.659 145.763 194.082 143.068 192.847C140.397 191.557 137.57 190.617 134.657 190.053C131.87 189.585 129.036 189.46 126.219 189.681C123.606 189.808 121.033 190.379 118.613 191.37C116.135 192.466 113.83 193.914 111.768 195.67C102.325 203.682 101.041 217.382 103.365 228.83C103.681 230.384 104.089 231.918 104.586 233.424C105.282 235.532 108.634 234.629 107.932 232.503L107.935 232.51Z" fill="#211715"/>
<path d="M206.581 234.122C204.891 232.453 203.064 230.927 201.12 229.562C200.112 228.85 199.065 228.196 197.983 227.602C196.98 226.98 195.901 226.488 194.774 226.137C193.671 225.825 192.492 225.929 191.46 226.427C190.428 226.925 189.615 227.785 189.175 228.842C188.754 229.936 188.715 231.14 189.063 232.259C189.464 233.465 190.476 234.28 191.368 235.133C193.282 236.958 195.298 238.67 197.285 240.411C197.615 240.726 198.054 240.902 198.511 240.902C198.968 240.902 199.408 240.726 199.738 240.411C200.06 240.084 200.24 239.645 200.24 239.187C200.24 238.728 200.06 238.289 199.738 237.962C198.3 236.699 196.847 235.457 195.425 234.17C194.63 233.449 193.845 232.717 193.079 231.965C192.896 231.786 192.718 231.6 192.535 231.422C192.535 231.422 192.228 231.137 192.4 231.301C192.535 231.428 192.368 231.28 192.366 231.229C192.379 231.483 192.335 231.101 192.313 231C192.355 231.195 192.298 230.706 192.302 230.603C192.33 230.36 192.391 230.123 192.484 229.896C192.531 229.802 192.586 229.711 192.648 229.626C192.603 229.685 192.536 229.739 192.658 229.657C192.837 229.536 192.658 229.664 192.646 229.672C192.736 229.63 192.868 229.566 192.696 229.624C192.887 229.557 193.082 229.505 193.281 229.467C193.489 229.43 193.276 229.473 193.243 229.475C193.326 229.47 193.409 229.463 193.492 229.465C193.575 229.467 194.004 229.492 193.803 229.465C193.602 229.439 194.013 229.522 194.092 229.545C193.875 229.48 194.385 229.673 194.46 229.707C194.685 229.81 194.909 229.915 195.131 230.024C195.613 230.261 196.089 230.511 196.557 230.775C197.455 231.28 198.326 231.828 199.171 232.414C200.942 233.654 202.601 235.045 204.13 236.572C205.72 238.142 208.174 235.694 206.584 234.123L206.581 234.122Z" fill="#211715"/>
<path d="M200.233 238.599C197.94 237.108 195.602 235.69 193.303 234.209C190.99 232.719 188.804 230.78 186.147 229.927C183.255 228.998 179.872 230.391 179.304 233.589C178.677 237.111 181.59 239.167 184.028 241.056L193.948 248.742C194.28 249.054 194.719 249.227 195.175 249.227C195.63 249.227 196.069 249.054 196.401 248.742C196.724 248.416 196.905 247.976 196.905 247.518C196.905 247.059 196.724 246.619 196.401 246.293L188.891 240.473L185.204 237.618C184.33 236.94 183.228 236.236 182.799 235.164C182.656 234.839 182.631 234.475 182.728 234.133C182.824 233.792 183.037 233.494 183.329 233.292C184.114 232.787 185.15 233.18 185.916 233.542C187.961 234.51 189.758 236.048 191.659 237.27C193.922 238.725 196.223 240.12 198.477 241.588C200.353 242.81 202.092 239.811 200.229 238.597L200.233 238.599Z" fill="#211715"/>
<path d="M183.216 236.585C180.759 236.244 178.373 236.999 177.183 239.334C176.626 240.47 176.525 241.776 176.902 242.984C177.322 244.158 178.055 245.196 179.02 245.987C182.685 249.497 186.959 252.261 191.198 255.017C193.077 256.238 194.812 253.239 192.949 252.026C189.587 249.959 186.364 247.674 183.3 245.188C182.535 244.535 181.794 243.856 181.076 243.151C180.555 242.639 180.227 242.393 180.151 241.622C180.121 241.354 180.166 241.082 180.28 240.838C180.395 240.593 180.575 240.385 180.801 240.237C180.608 240.386 181.067 240.106 181.115 240.084C181.226 240.052 181.334 240.014 181.441 239.971C181.719 239.897 182.01 239.882 182.294 239.926C182.737 240.032 183.204 239.967 183.601 239.742C183.997 239.517 184.293 239.151 184.428 238.716C184.547 238.273 184.487 237.801 184.26 237.403C184.033 237.004 183.658 236.71 183.216 236.585Z" fill="#211715"/>
<path d="M181.709 244.48C179.193 244.215 176.964 245.51 176.411 248.075C176.136 249.209 176.272 250.405 176.795 251.449C177.12 252.051 177.491 252.628 177.905 253.174C180.031 256.016 182.321 258.732 184.765 261.307C186.278 262.953 188.727 260.498 187.218 258.858C186.325 257.887 185.443 256.905 184.574 255.911C183.547 254.736 182.376 253.356 181.516 252.248C181.234 251.887 180.73 251.204 180.39 250.694C180.237 250.463 180.087 250.23 179.949 249.989C179.896 249.898 179.851 249.787 179.791 249.7C179.718 249.556 179.728 249.58 179.813 249.778C179.782 249.695 179.758 249.61 179.741 249.523C179.7 249.029 179.836 248.536 180.125 248.133C180.144 248.114 180.441 247.927 180.259 248.001C180.318 247.977 180.806 247.863 180.501 247.909C180.904 247.87 181.309 247.881 181.709 247.943C182.168 247.941 182.607 247.757 182.932 247.433C183.257 247.109 183.441 246.67 183.443 246.211C183.433 245.755 183.247 245.32 182.924 244.998C182.601 244.675 182.165 244.489 181.709 244.479V244.48Z" fill="#211715"/>
<path d="M204.127 236.572C208.46 241.443 205.106 248.359 202.118 252.985C200.372 255.802 198.257 258.374 195.829 260.631C194.193 262.09 192.582 263.046 190.435 262.85C190.356 262.843 190.105 262.801 190.467 262.857C190.314 262.833 190.163 262.806 190.011 262.775C189.77 262.727 189.53 262.667 189.289 262.595C188.812 262.473 188.358 262.274 187.945 262.007C186.774 261.246 185.874 260.135 185.373 258.832C185.139 258.437 184.758 258.151 184.314 258.034C183.869 257.918 183.397 257.981 182.999 258.21C182.611 258.45 182.329 258.83 182.213 259.271C182.098 259.712 182.156 260.181 182.377 260.58C182.967 261.973 183.885 263.203 185.053 264.166C186.221 265.129 187.604 265.797 189.085 266.113C190.324 266.391 191.607 266.404 192.851 266.15C194.095 265.897 195.271 265.383 196.302 264.643C199.541 262.406 202.067 259.181 204.283 255.971C206.424 252.867 208.358 249.424 209.219 245.726C210.195 241.534 209.484 237.386 206.579 234.119C205.093 232.449 202.646 234.906 204.125 236.569L204.127 236.572Z" fill="#211715"/>
<path d="M104.87 236.571C107.726 233.75 111.111 231.065 114.873 229.558C115.124 229.457 114.956 229.53 114.908 229.545C114.967 229.526 115.026 229.511 115.085 229.494C115.144 229.477 115.216 229.466 115.282 229.452C115.252 229.459 114.981 229.473 115.188 229.472C115.35 229.472 115.512 229.472 115.673 229.472C115.869 229.472 115.673 229.458 115.634 229.453C115.748 229.47 115.861 229.494 115.973 229.525C116.085 229.554 116.19 229.591 116.303 229.628C116.263 229.614 116.11 229.54 116.278 229.633C116.307 229.65 116.356 229.647 116.377 229.674C116.526 229.901 116.624 230.158 116.666 230.427C116.708 230.753 116.598 230.381 116.628 230.666C116.621 230.598 116.628 230.505 116.651 230.6C116.675 230.696 116.628 230.621 116.724 230.515C116.37 230.906 115.966 231.261 115.591 231.631C114.887 232.326 114.184 233.024 113.482 233.724C112.066 235.132 110.65 236.539 109.257 237.97C107.699 239.57 110.15 242.021 111.714 240.42C113.16 238.933 114.635 237.469 116.107 236.006C116.944 235.175 117.783 234.346 118.623 233.517C119.084 233.142 119.458 232.672 119.72 232.139C119.982 231.606 120.125 231.023 120.141 230.43C120.134 229.827 120.005 229.232 119.762 228.68C119.519 228.128 119.167 227.63 118.727 227.217C118.286 226.804 117.768 226.484 117.201 226.276C116.634 226.068 116.031 225.976 115.428 226.006C114.293 226.086 113.191 226.425 112.208 226.997C111.074 227.551 109.976 228.175 108.92 228.865C106.581 230.397 104.403 232.16 102.419 234.13C100.829 235.7 103.287 238.15 104.872 236.579L104.87 236.571Z" fill="#211715"/>
<path d="M110.517 241.59C112.508 240.291 114.535 239.054 116.54 237.78C118.428 236.581 120.214 235.19 122.137 234.055C123.237 233.405 126.321 232.101 126.317 234.532C126.317 235.536 125.433 236.309 124.719 236.894C123.538 237.862 122.304 238.771 121.098 239.704L112.594 246.295C112.271 246.621 112.09 247.061 112.09 247.52C112.09 247.978 112.271 248.418 112.594 248.744C112.925 249.059 113.364 249.234 113.821 249.234C114.278 249.234 114.717 249.059 115.048 248.744L123.692 242.046C126.15 240.14 129.519 238.264 129.772 234.811C129.806 234.07 129.673 233.331 129.384 232.648C129.095 231.964 128.656 231.354 128.1 230.862C127.544 230.37 126.885 230.008 126.171 229.803C125.457 229.598 124.706 229.555 123.974 229.677C121.161 230.098 118.947 232.076 116.652 233.589C114.049 235.303 111.375 236.902 108.765 238.601C106.901 239.814 108.638 242.815 110.516 241.593L110.517 241.59Z" fill="#211715"/>
<path d="M126.703 239.926C127.234 239.841 127.777 239.962 128.221 240.263C128.415 240.408 128.572 240.596 128.681 240.812C128.79 241.028 128.846 241.267 128.847 241.508C128.806 242.347 128.466 242.613 127.919 243.151C127.202 243.856 126.461 244.535 125.695 245.188C122.632 247.675 119.408 249.959 116.046 252.026C114.182 253.238 115.919 256.239 117.797 255.017C122.036 252.261 126.309 249.497 129.974 245.987C130.941 245.197 131.674 244.159 132.093 242.984C132.468 241.776 132.368 240.471 131.812 239.335C130.624 236.998 128.233 236.244 125.778 236.585C125.336 236.711 124.962 237.004 124.736 237.403C124.509 237.802 124.45 238.274 124.569 238.717C124.702 239.153 124.997 239.522 125.394 239.747C125.791 239.972 126.26 240.036 126.703 239.926V239.926Z" fill="#211715"/>
<path d="M127.287 247.944C127.687 247.882 128.092 247.871 128.495 247.91C128.194 247.864 128.725 247.997 128.737 248.002C128.5 247.901 128.905 248.178 128.794 248.057C129.005 248.255 129.145 248.516 129.194 248.8C129.314 249.253 129.223 248.667 129.256 249.131C129.256 249.142 129.235 249.715 129.274 249.435C129.253 249.552 129.223 249.667 129.183 249.779C129.268 249.581 129.276 249.555 129.205 249.701C129.144 249.789 129.1 249.896 129.047 249.99C128.921 250.21 128.784 250.423 128.644 250.639C128.293 251.171 127.777 251.866 127.48 252.251C125.812 254.4 123.728 256.741 121.778 258.861C120.27 260.5 122.718 262.957 124.232 261.31C126.675 258.735 128.965 256.019 131.091 253.177C131.505 252.631 131.876 252.054 132.201 251.452C132.724 250.408 132.86 249.212 132.584 248.078C132.032 245.513 129.804 244.218 127.287 244.483C126.831 244.496 126.398 244.682 126.075 245.004C125.752 245.326 125.565 245.759 125.552 246.215C125.555 246.673 125.739 247.112 126.064 247.436C126.389 247.761 126.828 247.944 127.287 247.947V247.944Z" fill="#211715"/>
<path d="M102.421 234.122C101.189 235.509 100.289 237.157 99.7883 238.942C99.2875 240.727 99.1989 242.602 99.5294 244.426C100.09 248.126 101.874 251.618 103.884 254.734C105.985 257.989 108.438 261.273 111.474 263.722C113.636 265.467 116.034 266.624 118.851 266.28C120.535 266.105 122.143 265.486 123.508 264.485C124.873 263.484 125.947 262.138 126.619 260.586C126.836 260.186 126.893 259.718 126.777 259.278C126.662 258.838 126.382 258.458 125.996 258.216C125.598 257.987 125.126 257.924 124.682 258.041C124.237 258.157 123.857 258.443 123.622 258.838C123.251 259.85 122.621 260.748 121.794 261.443C120.967 262.137 119.973 262.602 118.91 262.793C118.784 262.818 118.658 262.84 118.532 262.86C118.593 262.85 118.889 262.822 118.564 262.853C118.389 262.869 118.215 262.884 118.04 262.891C117.735 262.911 117.429 262.907 117.125 262.88C115.974 262.633 114.904 262.104 114.008 261.342C111.521 259.271 109.368 256.829 107.625 254.102C105.681 251.448 104.203 248.482 103.255 245.333C102.433 242.247 102.677 239.039 104.872 236.572C106.35 234.912 103.905 232.451 102.419 234.122H102.421Z" fill="#211715"/>
</g>
<defs>
<clipPath id="clip0_147_514">
<rect width="151" height="222" fill="white" transform="translate(79 52)"/>
</clipPath>
</defs>
</svg>
