<svg width="43" height="39" viewBox="0 0 43 39" fill="none" xmlns="http://www.w3.org/2000/svg">
<path d="M9.5 13.5V28.8682C9.5 32.4905 9.5 34.3016 10.6716 35.4269C13.2998 37.9513 29.2115 38.4208 32.3284 35.4269C33.5 34.3016 33.5 32.4905 33.5 28.8682V13.5" stroke="currentColor" stroke-width="3" stroke-linecap="round"/>
<path d="M8.98147 19.5L3.58642 14.2783C2.19547 12.932 1.5 12.2589 1.5 11.4225C1.5 10.586 2.19547 9.91288 3.58642 8.56662L7.58836 4.69327C8.28176 4.02215 8.62847 3.68658 9.04176 3.43936C9.45506 3.19213 9.92021 3.04206 10.8505 2.74193L14.1422 1.67994C14.6235 1.52466 14.8642 1.44702 15.0278 1.54037C15.1915 1.63371 15.2431 1.9026 15.3465 2.44036C15.8872 5.25368 18.4366 7.38369 21.5 7.38369C24.5634 7.38369 27.1128 5.25368 27.6535 2.44036C27.7569 1.9026 27.8085 1.63371 27.9722 1.54037C28.1358 1.44702 28.3765 1.52466 28.8578 1.67994L32.1495 2.74193C33.0798 3.04206 33.5449 3.19213 33.9582 3.43936C34.3715 3.68658 34.7182 4.02215 35.4116 4.69327L39.4136 8.56662C40.8045 9.91288 41.5 10.586 41.5 11.4225C41.5 12.2589 40.8045 12.932 39.4136 14.2783L34.0185 19.5" stroke="currentColor" stroke-width="3" stroke-linecap="round" stroke-linejoin="round"/>
</svg>
